<svg version="1.1" id="Layer_1" xmlns="http://www.w3.org/2000/svg" xmlns:xlink="http://www.w3.org/1999/xlink" x="0px" y="0px"
	 width="100%" viewBox="0 0 5000 1500" enable-background="new 0 0 5000 1500" xml:space="preserve">
<path fill="#FFFFFF" opacity="1.000000" stroke="none" 
	d="
M3898.000000,1502.000000 
	C2598.666992,1502.000000 1300.333740,1502.000000 2.000523,1502.000000 
	C2.000349,1002.000305 2.000349,502.000641 2.000174,2.000483 
	C3.666345,2.000000 5.332689,2.000000 6.999034,2.000000 
	C1671.998657,2.000000 3336.998291,2.000000 5001.998535,2.000000 
	C5001.999023,501.999298 5001.999023,1001.998596 5001.999512,1501.999023 
	C4634.333496,1502.000000 4266.666504,1502.000000 3898.000000,1502.000000 
M3630.458252,801.762451 
	C3625.497803,795.596497 3620.537354,789.430481 3615.323975,782.950134 
	C3608.964844,786.698059 3603.332275,790.017883 3597.675293,793.352051 
	C3598.658203,807.375671 3599.423096,820.663391 3600.563232,833.918701 
	C3601.875244,849.173340 3601.996826,864.738892 3605.305176,879.574158 
	C3615.126953,923.619446 3638.251953,959.990234 3673.078369,988.637573 
	C3688.396240,1001.238037 3705.608887,1010.763184 3725.294922,1014.819885 
	C3733.747559,1016.561768 3742.362061,1017.615173 3750.949219,1018.560547 
	C3754.930420,1018.998779 3757.628418,1020.268372 3759.736816,1023.893677 
	C3771.122070,1043.470947 3782.790039,1062.883667 3794.196289,1082.448730 
	C3795.232178,1084.225586 3796.154541,1087.271118 3795.339111,1088.721313 
	C3791.258789,1095.980713 3793.823486,1102.036377 3797.479248,1108.390503 
	C3839.165283,1180.850708 3880.740723,1253.374634 3922.400879,1325.849976 
	C3934.682861,1347.217285 3946.835938,1368.668335 3959.620361,1389.733643 
	C3968.227783,1403.916016 3980.551514,1412.754639 3998.099854,1412.351318 
	C4021.859619,1411.805054 4038.380859,1399.514893 4048.971924,1379.394653 
	C4054.972168,1367.996826 4054.208252,1355.526733 4047.827637,1343.897949 
	C4045.584961,1339.810913 4043.181885,1335.812134 4040.856934,1331.770142 
	C3989.213623,1241.984619 3937.481934,1152.249390 3886.058838,1062.338013 
	C3880.626953,1052.840820 3874.902344,1045.666626 3862.357666,1048.532837 
	C3849.321289,1025.380615 3836.466553,1002.550476 3823.867920,980.175781 
	C3835.125000,958.576660 3841.944092,936.836182 3841.188232,913.235901 
	C3839.610107,863.943176 3819.120850,822.682373 3786.819092,786.588562 
	C3782.848389,782.151733 3778.285400,778.060852 3773.408447,774.651184 
	C3752.120361,759.767883 3730.618408,745.190308 3709.168701,730.539185 
	C3708.680176,730.205505 3707.891357,730.311646 3706.717773,730.132629 
	C3701.420166,733.240540 3695.782227,736.548157 3690.285156,739.773132 
	C3693.383301,748.256470 3696.109131,755.720276 3698.226562,763.778564 
	C3698.226562,763.778564 3697.629883,764.384888 3696.367432,763.917786 
	C3690.434326,758.225586 3684.501221,752.533325 3678.266602,746.551819 
	C3672.447510,750.039734 3667.156250,753.211426 3661.777588,756.435486 
	C3664.307129,767.179810 3666.651855,777.138855 3668.206299,787.813538 
	C3667.953125,788.063049 3667.699707,788.312561 3666.211426,788.031250 
	C3658.890381,780.987854 3651.569336,773.944458 3643.802979,766.472778 
	C3637.970459,769.961487 3632.736328,773.092163 3627.540771,776.199829 
	C3629.457520,785.099792 3631.184082,793.117493 3632.290527,801.716980 
	C3632.290527,801.716980 3631.693115,802.321838 3630.458252,801.762451 
M2476.030762,346.866302 
	C2474.548584,325.599243 2473.133545,304.327240 2471.571289,283.066101 
	C2466.982422,220.612518 2462.349609,158.162109 2457.681396,95.714394 
	C2457.342529,91.181465 2456.580322,86.680145 2455.993652,81.992386 
	C2398.882080,81.992386 2342.631104,81.992386 2285.584229,81.992386 
	C2265.873535,144.875885 2246.138428,207.691528 2226.498291,270.536957 
	C2206.869385,333.347748 2187.379639,396.202362 2167.494141,458.930328 
	C2166.770020,458.864655 2166.045898,458.798950 2165.321777,458.733276 
	C2125.498291,333.219635 2085.674805,207.705994 2045.829468,82.123100 
	C1988.954102,82.123100 1932.734863,82.123100 1875.656128,82.123100 
	C1861.241211,273.357269 1846.855347,464.206757 1832.424683,655.649292 
	C1876.666870,655.649292 1920.396484,655.649292 1964.759888,655.649292 
	C1968.328003,590.177368 1971.995117,525.353455 1975.356812,460.513641 
	C1978.721680,395.614441 1981.971558,330.710999 1985.771118,265.839783 
	C1986.641235,265.745056 1987.511353,265.650330 1988.381592,265.555634 
	C2029.662964,395.714478 2070.944336,525.873291 2112.163086,655.834717 
	C2148.401123,655.834717 2183.634033,655.834717 2219.176270,655.834717 
	C2260.117432,525.865723 2300.945557,396.255280 2341.773682,266.644806 
	C2342.555908,266.761627 2343.338135,266.878479 2344.120117,266.995300 
	C2351.574951,396.411224 2359.029785,525.827148 2366.474854,655.074585 
	C2378.170654,657.193604 2491.388184,656.750305 2498.778320,654.525024 
	C2497.210938,633.398682 2495.597168,612.150696 2494.066650,590.896790 
	C2491.865967,560.330017 2489.813965,529.752380 2487.539795,499.191132 
	C2483.807617,449.032623 2479.948242,398.883545 2476.030762,346.866302 
M4052.214355,246.999985 
	C4052.227783,283.324524 4051.968262,319.651764 4052.330811,355.972839 
	C4052.689941,391.988922 4053.676025,427.998749 4054.387207,464.011322 
	C4050.435059,461.016052 4048.221436,457.785187 4046.115967,454.485321 
	C3968.527344,332.880615 3890.915039,211.291000 3813.477539,89.590096 
	C3809.906250,83.977585 3806.270508,81.426216 3799.263916,81.489990 
	C3757.609863,81.869148 3715.950439,81.665642 3674.292969,81.700188 
	C3671.091553,81.702843 3667.890381,82.031441 3664.597412,82.213615 
	C3664.597412,273.860443 3664.597412,464.639282 3664.597412,655.818359 
	C3708.353516,655.818359 3751.510742,655.818359 3795.785645,655.818359 
	C3795.785645,623.433716 3795.785400,591.540710 3795.785400,559.647705 
	C3795.785400,527.321411 3795.797119,494.995178 3795.781738,462.668915 
	C3795.766846,430.675964 3795.799072,398.682739 3795.673340,366.690186 
	C3795.548096,334.760010 3793.229736,302.834808 3794.882812,270.808990 
	C3797.797119,273.755188 3799.828857,276.791656 3801.813965,279.858124 
	C3881.291992,402.626831 3960.811279,525.369080 4040.106201,648.256042 
	C4044.003418,654.295959 4048.115723,656.555237 4055.288818,656.490906 
	C4094.610352,656.138123 4133.937012,656.333435 4173.261719,656.303040 
	C4176.501465,656.300537 4179.741211,656.018677 4182.832031,655.873535 
	C4184.951660,642.481018 4184.362305,89.012466 4182.327637,82.167549 
	C4160.402832,80.452065 4060.345947,81.246864 4052.214355,83.377922 
	C4052.214355,137.128387 4052.214355,191.064178 4052.214355,246.999985 
M2926.771973,360.062927 
	C2921.227539,358.308563 2915.683105,356.554199 2908.285645,354.213562 
	C2912.650879,352.040771 2915.166504,350.727264 2917.732910,349.521637 
	C2929.906494,343.802429 2940.894531,336.359528 2950.448975,326.880127 
	C2981.721436,295.853851 2994.618408,257.959137 2992.341553,214.428146 
	C2990.807617,185.097580 2980.492676,159.312790 2960.962158,137.321426 
	C2941.801514,115.746994 2917.630615,102.222397 2890.269775,94.120796 
	C2856.726807,84.188614 2822.222412,81.744888 2787.468018,81.713814 
	C2722.143555,81.655403 2656.819092,81.677864 2591.494629,81.701561 
	C2588.604248,81.702606 2585.713623,82.048744 2582.547363,82.251823 
	C2582.547363,273.723083 2582.547363,464.513519 2582.547363,656.322327 
	C2586.974609,656.322327 2590.893066,656.322388 2594.811279,656.322388 
	C2665.801514,656.322388 2736.792480,656.482727 2807.781738,656.213928 
	C2826.412354,656.143372 2845.104248,655.467224 2863.650391,653.778870 
	C2889.985596,651.381531 2915.707520,645.497131 2939.510742,633.632874 
	C2980.340332,613.282104 3010.397217,583.137085 3022.704590,537.918213 
	C3028.370850,517.100952 3029.221680,495.926086 3026.271484,474.514435 
	C3022.184082,444.848419 3010.395996,419.025970 2989.212402,397.645569 
	C2971.958496,380.230927 2951.084229,368.801849 2926.771973,360.062927 
M816.750793,640.944519 
	C816.750793,566.088623 816.750793,491.232758 816.750793,416.526672 
	C838.358276,414.404388 1040.534546,415.328827 1047.950439,417.566223 
	C1047.955811,496.915314 1047.948364,576.399658 1047.954834,655.655579 
	C1093.637451,655.655579 1137.817871,655.655579 1182.015625,655.655579 
	C1182.015625,464.161682 1182.015625,273.339905 1182.015625,82.180710 
	C1137.260254,82.180710 1093.102417,82.180710 1047.901489,82.180710 
	C1047.901489,156.146652 1047.901489,229.614182 1047.901489,303.384979 
	C970.436707,303.384979 894.017883,303.384979 816.477905,303.384979 
	C816.477905,229.266998 816.477905,155.818924 816.477905,82.264076 
	C771.198181,82.264076 727.044312,82.264076 682.530945,82.264076 
	C682.530945,273.677917 682.530945,464.500397 682.530945,655.620728 
	C727.448364,655.620728 771.864136,655.620728 816.751221,655.620728 
	C816.751221,650.900024 816.751221,646.917480 816.750793,640.944519 
M4439.085938,110.027252 
	C4370.614746,291.734955 4302.143555,473.442688 4233.375488,655.937378 
	C4280.900879,655.937378 4326.801270,655.937378 4373.293457,655.937378 
	C4386.955078,617.355774 4400.564941,578.920349 4413.952637,541.111816 
	C4483.169434,541.111816 4551.015625,541.111816 4619.080566,541.111816 
	C4632.770996,579.799011 4646.282227,617.980225 4659.632812,655.707458 
	C4708.911133,655.707458 4757.036133,655.707458 4806.209473,655.707458 
	C4733.879395,463.766479 4661.883301,272.711945 4590.095703,82.210007 
	C4542.476074,82.210007 4496.273926,82.210007 4449.604980,82.210007 
	C4446.215820,91.202171 4442.940430,99.891556 4439.085938,110.027252 
M3313.000000,81.677910 
	C3294.737305,81.677910 3276.474609,81.677910 3257.757324,81.677910 
	C3185.599609,273.177643 3113.684570,464.033020 3041.436035,655.773560 
	C3088.803955,655.773560 3134.944336,655.773560 3181.387207,655.773560 
	C3194.994141,617.277344 3208.507812,579.045471 3221.968750,540.961914 
	C3290.722412,540.961914 3358.606689,540.961914 3427.025146,540.961914 
	C3440.638184,579.440247 3454.155029,617.646790 3467.692139,655.910278 
	C3516.625977,655.910278 3564.848877,655.910278 3614.280762,655.910278 
	C3541.979248,464.034851 3469.963867,272.919098 3397.901367,81.677734 
	C3369.614746,81.677734 3342.307373,81.677734 3313.000000,81.677910 
M1555.000000,540.458008 
	C1575.891846,540.458008 1596.783691,540.458008 1617.881226,540.458008 
	C1631.705688,579.562195 1645.206909,617.752319 1658.631592,655.725708 
	C1707.578735,655.725708 1755.711914,655.725708 1805.184570,655.725708 
	C1732.921021,463.940247 1661.023193,273.125519 1589.048462,82.106720 
	C1542.026001,82.106720 1495.467773,82.106720 1448.614624,82.106720 
	C1376.604492,273.223602 1304.701538,464.056061 1232.447021,655.821655 
	C1279.792480,655.821655 1325.654175,655.821655 1372.312378,655.821655 
	C1385.855591,617.565796 1399.469116,579.111450 1413.153076,540.458191 
	C1460.407715,540.458191 1506.703857,540.458191 1555.000000,540.458008 
M305.067474,649.978760 
	C364.459686,668.926575 424.842712,671.271423 485.716095,659.385986 
	C533.425964,650.070679 576.039185,629.803406 611.764648,596.206177 
	C614.610596,593.529785 617.258423,590.642822 619.901367,587.952393 
	C604.866882,552.900269 590.189392,518.680420 575.273926,483.905884 
	C573.229309,485.530701 571.637024,486.667847 570.188538,487.965515 
	C515.370667,537.078125 450.841034,553.127747 379.812958,539.469604 
	C319.219391,527.817810 277.830688,491.081909 257.630859,432.154266 
	C245.115158,395.643066 244.293869,358.127380 252.344452,320.708435 
	C264.378052,264.776642 296.137482,224.245468 349.811646,202.624817 
	C381.367065,189.913879 414.398193,186.835312 448.003540,191.975906 
	C491.130859,198.573029 529.612854,215.700516 562.950684,244.048218 
	C564.607849,245.457352 566.309204,246.814468 568.697693,248.777435 
	C582.648865,211.395508 596.225037,175.018417 609.969788,138.189575 
	C607.042969,135.496506 604.640564,132.660995 601.673157,130.665939 
	C590.084595,122.874825 578.794006,114.458672 566.526123,107.894325 
	C531.109192,88.943352 492.869843,79.228729 453.031189,75.345886 
	C404.434052,70.609406 356.401978,73.345184 309.737671,88.374313 
	C219.846985,117.325302 157.394943,175.346146 126.977135,265.506836 
	C108.269066,320.958984 106.355164,377.967804 116.877907,435.266693 
	C126.792374,489.253387 149.749786,537.059692 187.802017,577.114197 
	C220.155624,611.170227 259.235352,634.553162 305.067474,649.978760 
M4542.499512,909.501526 
	C4430.533691,1019.537659 4318.521973,1129.527222 4206.640137,1239.649292 
	C4184.076660,1261.857910 4161.771484,1284.343140 4139.881836,1307.212280 
	C4134.513672,1312.820923 4129.986328,1319.969849 4127.261719,1327.232056 
	C4119.812988,1347.082642 4126.522461,1367.734741 4142.237793,1377.685913 
	C4158.961914,1388.275513 4186.378418,1386.162354 4198.609863,1367.641968 
	C4200.811523,1364.308105 4203.722656,1361.364014 4205.483398,1357.829956 
	C4217.759766,1333.192261 4236.968262,1315.235352 4259.816406,1300.692749 
	C4261.219238,1299.799927 4262.486816,1298.698853 4263.856445,1297.751099 
	C4292.594238,1277.861938 4317.952148,1254.580444 4337.788574,1225.513916 
	C4352.059082,1204.603516 4372.110840,1190.365479 4394.242188,1178.862549 
	C4399.475098,1176.142822 4405.123535,1174.221436 4410.624023,1171.914673 
	C4424.233398,1185.050903 4437.304199,1197.667114 4450.591309,1210.491821 
	C4466.229492,1197.159058 4480.895020,1184.580444 4495.640625,1172.097046 
	C4564.319336,1113.955566 4626.120605,1049.132446 4681.452637,978.289062 
	C4711.664551,939.607788 4735.970215,896.969238 4758.512695,853.421326 
	C4776.779785,818.132202 4791.933105,781.578674 4801.178711,742.784119 
	C4802.133789,738.775574 4802.806152,734.699524 4803.587891,730.764893 
	C4801.715820,730.303589 4801.066895,729.970703 4800.452637,730.025696 
	C4798.798340,730.173950 4797.147949,730.430298 4795.515137,730.744080 
	C4768.054688,736.021484 4742.718262,746.805420 4718.554688,760.573303 
	C4683.046387,780.805359 4650.768066,805.542664 4620.857910,833.174316 
	C4594.430176,857.588806 4569.240234,883.342712 4542.499512,909.501526 
M115.127922,946.999756 
	C115.127922,1092.529907 115.127922,1238.060059 115.127922,1383.744995 
	C255.070755,1383.744995 393.847961,1383.744995 532.525208,1383.744995 
	C534.460938,1370.787109 533.959229,1271.822510 531.844788,1264.170044 
	C519.402771,1264.170044 506.771362,1264.170044 494.139923,1264.170044 
	C481.143768,1264.170044 468.147583,1264.170044 455.151428,1264.170044 
	C442.488495,1264.170044 429.825562,1264.170044 417.162628,1264.170044 
	C404.166473,1264.170044 391.170288,1264.170044 378.174133,1264.170044 
	C365.511200,1264.170044 352.848297,1264.170044 340.185364,1264.170044 
	C327.189209,1264.170044 314.193024,1264.179932 301.196869,1264.167236 
	C288.669952,1264.155151 276.143036,1264.119629 263.625092,1264.094604 
	C263.625092,1214.745850 263.625092,1166.883789 263.625092,1117.807617 
	C345.950104,1117.807617 427.714539,1117.807617 509.734497,1117.807617 
	C509.734497,1077.771240 509.734497,1038.955200 509.734497,999.321594 
	C497.561523,999.321594 485.939758,999.321655 474.318024,999.321655 
	C462.654785,999.321655 450.991577,999.321655 439.328339,999.321655 
	C427.665131,999.321655 416.001892,999.321655 404.338684,999.321655 
	C392.342224,999.321655 380.345764,999.321655 368.349304,999.321655 
	C356.686066,999.321655 345.022858,999.321655 333.359619,999.321655 
	C321.696381,999.321655 310.030762,999.469788 298.370605,999.279602 
	C286.893372,999.092407 275.337921,1000.161865 263.780823,998.570801 
	C263.780823,955.401917 263.780823,913.286560 263.780823,870.264404 
	C351.013977,870.264404 437.526459,870.264404 524.661133,870.264404 
	C524.661133,830.553223 524.661133,791.753967 524.661133,752.563232 
	C388.072662,752.563232 252.020248,752.563232 115.129288,752.563232 
	C115.129288,817.139648 115.129288,881.069641 115.127922,946.999756 
M1625.270630,1321.680420 
	C1694.110107,1373.780518 1770.045166,1403.004150 1857.898560,1394.005615 
	C1898.133545,1389.884521 1936.441162,1379.374634 1971.739502,1359.304199 
	C2010.562988,1337.229614 2040.227173,1306.680298 2057.190430,1264.757446 
	C2068.540527,1236.707642 2071.821289,1207.441406 2069.976318,1177.483154 
	C2067.981689,1145.099854 2058.041504,1115.501465 2038.196777,1089.543945 
	C2016.774292,1061.522339 1988.577271,1042.174683 1956.645386,1028.513916 
	C1927.888550,1016.211609 1898.363159,1005.706787 1869.181763,994.395996 
	C1853.349731,988.259521 1837.422241,982.352600 1821.736572,975.861816 
	C1809.367798,970.743652 1797.751831,964.173584 1788.438965,954.251099 
	C1765.994385,930.337036 1770.795776,892.916931 1798.716919,875.742798 
	C1804.045532,872.465210 1809.971069,869.866028 1815.945435,867.982422 
	C1838.338867,860.922302 1861.176514,860.295166 1884.097168,864.933533 
	C1924.600952,873.130188 1959.648926,892.157715 1990.538330,919.266968 
	C1992.928711,921.364929 1995.390503,923.381226 1998.359131,925.892151 
	C2019.607056,891.067627 2040.354126,857.064026 2061.048828,823.146301 
	C2059.572998,821.283142 2058.879883,820.133667 2057.931885,819.261658 
	C2054.745361,816.330750 2051.566650,813.376770 2048.208984,810.648193 
	C2021.781860,789.170593 1991.891235,773.993347 1959.943237,762.729797 
	C1885.769653,736.579102 1812.142334,738.247559 1739.483276,768.356323 
	C1709.148315,780.926636 1682.976562,799.721558 1662.691406,825.859436 
	C1631.640137,865.870117 1623.483765,911.741699 1629.346436,960.898987 
	C1635.160278,1009.643982 1659.594116,1046.968262 1700.175903,1073.870972 
	C1710.412354,1080.657104 1721.080811,1087.214111 1732.369019,1091.909668 
	C1762.483154,1104.436523 1793.073364,1115.814575 1823.413208,1127.803955 
	C1843.219238,1135.630493 1863.045898,1143.430298 1882.614258,1151.822876 
	C1893.101807,1156.320801 1902.110474,1163.329956 1909.641968,1172.022461 
	C1917.542480,1181.141235 1921.934204,1191.666382 1922.423706,1203.825684 
	C1923.541504,1231.599854 1909.061646,1253.331909 1881.778320,1263.927612 
	C1859.408447,1272.615112 1836.270264,1273.811401 1812.951050,1268.995728 
	C1762.357178,1258.547607 1718.987427,1234.211548 1681.222534,1199.376831 
	C1678.822998,1197.163696 1676.406860,1194.968384 1673.269531,1192.097656 
	C1648.654541,1228.406738 1624.455322,1264.102295 1599.814941,1300.448608 
	C1608.385254,1307.599854 1616.279419,1314.186890 1625.270630,1321.680420 
M1123.812500,1199.004761 
	C1067.698242,1050.131348 1011.584045,901.257812 955.486206,752.427856 
	C903.545837,752.427856 852.330444,752.427856 800.824707,752.427856 
	C721.519592,962.903259 642.350281,1173.018188 562.849182,1384.013672 
	C615.272522,1384.013672 666.061157,1384.013672 717.132812,1384.013672 
	C732.119446,1341.608521 746.946960,1299.653320 761.646851,1258.059326 
	C837.632385,1258.059326 912.484680,1258.059326 987.368347,1258.059326 
	C1002.407349,1300.616699 1017.241516,1342.594360 1031.915161,1384.117920 
	C1061.049805,1386.286865 1185.208008,1385.263672 1193.011230,1382.672852 
	C1170.089111,1321.929688 1147.176147,1261.210693 1123.812500,1199.004761 
M1431.970825,941.000000 
	C1431.970825,917.467163 1431.970825,893.934265 1431.970825,869.653015 
	C1460.228271,869.653015 1487.163330,869.746582 1514.097656,869.626648 
	C1540.909912,869.507202 1567.740967,870.164185 1594.576660,869.207275 
	C1594.576660,829.567688 1594.576660,791.082092 1594.576660,752.682922 
	C1576.614990,750.686768 1127.662964,751.542847 1120.664795,753.506592 
	C1118.984619,770.402344 1119.670410,861.692078 1121.782715,869.823364 
	C1175.030640,869.823364 1228.539307,869.823364 1283.259521,869.823364 
	C1283.259521,1041.813721 1283.259521,1212.841919 1283.259521,1384.145020 
	C1333.339844,1384.145020 1382.193848,1384.145020 1431.970825,1384.145020 
	C1431.970825,1236.746216 1431.970825,1089.873047 1431.970825,941.000000 
z"/>
<path fill="#FF5801" opacity="1.000000" stroke="none" 
	d="
M2476.086670,347.798401 
	C2479.948242,398.883545 2483.807617,449.032623 2487.539795,499.191132 
	C2489.813965,529.752380 2491.865967,560.330017 2494.066650,590.896790 
	C2495.597168,612.150696 2497.210938,633.398682 2498.778320,654.525024 
	C2491.388184,656.750305 2378.170654,657.193604 2366.474854,655.074585 
	C2359.029785,525.827148 2351.574951,396.411224 2344.120117,266.995300 
	C2343.338135,266.878479 2342.555908,266.761627 2341.773682,266.644806 
	C2300.945557,396.255280 2260.117432,525.865723 2219.176270,655.834717 
	C2183.634033,655.834717 2148.401123,655.834717 2112.163086,655.834717 
	C2070.944336,525.873291 2029.662964,395.714478 1988.381592,265.555634 
	C1987.511353,265.650330 1986.641235,265.745056 1985.771118,265.839783 
	C1981.971558,330.710999 1978.721680,395.614441 1975.356812,460.513641 
	C1971.995117,525.353455 1968.328003,590.177368 1964.759888,655.649292 
	C1920.396484,655.649292 1876.666870,655.649292 1832.424683,655.649292 
	C1846.855347,464.206757 1861.241211,273.357269 1875.656128,82.123100 
	C1932.734863,82.123100 1988.954102,82.123100 2045.829468,82.123100 
	C2085.674805,207.705994 2125.498291,333.219635 2165.321777,458.733276 
	C2166.045898,458.798950 2166.770020,458.864655 2167.494141,458.930328 
	C2187.379639,396.202362 2206.869385,333.347748 2226.498291,270.536957 
	C2246.138428,207.691528 2265.873535,144.875885 2285.584229,81.992386 
	C2342.631104,81.992386 2398.882080,81.992386 2455.993652,81.992386 
	C2456.580322,86.680145 2457.342529,91.181465 2457.681396,95.714394 
	C2462.349609,158.162109 2466.982422,220.612518 2471.571289,283.066101 
	C2473.133545,304.327240 2474.548584,325.599243 2476.086670,347.798401 
z"/>
<path fill="#676767" opacity="1.000000" stroke="none" 
	d="
M4052.214355,245.999969 
	C4052.214355,191.064178 4052.214355,137.128387 4052.214355,83.377922 
	C4060.345947,81.246864 4160.402832,80.452065 4182.327637,82.167549 
	C4184.362305,89.012466 4184.951660,642.481018 4182.832031,655.873535 
	C4179.741211,656.018677 4176.501465,656.300537 4173.261719,656.303040 
	C4133.937012,656.333435 4094.610352,656.138123 4055.288818,656.490906 
	C4048.115723,656.555237 4044.003418,654.295959 4040.106201,648.256042 
	C3960.811279,525.369080 3881.291992,402.626831 3801.813965,279.858124 
	C3799.828857,276.791656 3797.797119,273.755188 3794.882812,270.808990 
	C3793.229736,302.834808 3795.548096,334.760010 3795.673340,366.690186 
	C3795.799072,398.682739 3795.766846,430.675964 3795.781738,462.668915 
	C3795.797119,494.995178 3795.785400,527.321411 3795.785400,559.647705 
	C3795.785400,591.540710 3795.785645,623.433716 3795.785645,655.818359 
	C3751.510742,655.818359 3708.353516,655.818359 3664.597412,655.818359 
	C3664.597412,464.639282 3664.597412,273.860443 3664.597412,82.213615 
	C3667.890381,82.031441 3671.091553,81.702843 3674.292969,81.700188 
	C3715.950439,81.665642 3757.609863,81.869148 3799.263916,81.489990 
	C3806.270508,81.426216 3809.906250,83.977585 3813.477539,89.590096 
	C3890.915039,211.291000 3968.527344,332.880615 4046.115967,454.485321 
	C4048.221436,457.785187 4050.435059,461.016052 4054.387207,464.011322 
	C4053.676025,427.998749 4052.689941,391.988922 4052.330811,355.972839 
	C4051.968262,319.651764 4052.227783,283.324524 4052.214355,245.999969 
z"/>
<path fill="#676767" opacity="1.000000" stroke="none" 
	d="
M2927.524902,360.292969 
	C2951.084229,368.801849 2971.958496,380.230927 2989.212402,397.645569 
	C3010.395996,419.025970 3022.184082,444.848419 3026.271484,474.514435 
	C3029.221680,495.926086 3028.370850,517.100952 3022.704590,537.918213 
	C3010.397217,583.137085 2980.340332,613.282104 2939.510742,633.632874 
	C2915.707520,645.497131 2889.985596,651.381531 2863.650391,653.778870 
	C2845.104248,655.467224 2826.412354,656.143372 2807.781738,656.213928 
	C2736.792480,656.482727 2665.801514,656.322388 2594.811279,656.322388 
	C2590.893066,656.322388 2586.974609,656.322327 2582.547363,656.322327 
	C2582.547363,464.513519 2582.547363,273.723083 2582.547363,82.251823 
	C2585.713623,82.048744 2588.604248,81.702606 2591.494629,81.701561 
	C2656.819092,81.677864 2722.143555,81.655403 2787.468018,81.713814 
	C2822.222412,81.744888 2856.726807,84.188614 2890.269775,94.120796 
	C2917.630615,102.222397 2941.801514,115.746994 2960.962158,137.321426 
	C2980.492676,159.312790 2990.807617,185.097580 2992.341553,214.428146 
	C2994.618408,257.959137 2981.721436,295.853851 2950.448975,326.880127 
	C2940.894531,336.359528 2929.906494,343.802429 2917.732910,349.521637 
	C2915.166504,350.727264 2912.650879,352.040771 2908.285645,354.213562 
	C2915.683105,356.554199 2921.227539,358.308563 2927.524902,360.292969 
M2716.078369,542.724731 
	C2716.078369,546.248291 2716.078369,549.771790 2716.078369,553.584351 
	C2720.073975,553.779724 2722.690918,554.017517 2725.308105,554.018494 
	C2749.278809,554.027649 2773.251953,554.178589 2797.219482,553.885986 
	C2806.843994,553.768433 2816.514160,553.111267 2826.063721,551.906189 
	C2863.251221,547.213257 2888.021973,522.549255 2890.950439,486.123993 
	C2893.106201,459.307220 2883.923828,437.129333 2860.383545,422.119110 
	C2845.023926,412.325378 2828.041260,408.180054 2810.133301,407.932892 
	C2780.841064,407.528595 2751.541016,407.641022 2722.244385,407.599976 
	C2720.384521,407.597382 2718.523926,408.149536 2716.078369,408.536194 
	C2716.078369,452.999084 2716.078369,496.894501 2716.078369,542.724731 
M2755.000732,181.709885 
	C2748.670654,181.709900 2742.339844,181.653702 2736.010742,181.725555 
	C2729.518311,181.799255 2723.027344,181.998154 2716.612793,182.140564 
	C2716.612793,226.573898 2716.612793,269.754700 2716.612793,314.036957 
	C2728.686768,314.036957 2740.257568,314.272675 2751.815186,313.981293 
	C2768.775391,313.553680 2785.840820,313.773193 2802.656494,311.890015 
	C2836.664795,308.081482 2859.552002,282.714630 2860.156738,249.826706 
	C2860.831787,213.150757 2841.905029,189.260269 2805.804688,183.834259 
	C2789.791748,181.427444 2773.283447,182.316681 2755.000732,181.709885 
z"/>
<path fill="#FF5701" opacity="1.000000" stroke="none" 
	d="
M816.750977,641.939697 
	C816.751221,646.917480 816.751221,650.900024 816.751221,655.620728 
	C771.864136,655.620728 727.448364,655.620728 682.530945,655.620728 
	C682.530945,464.500397 682.530945,273.677917 682.530945,82.264076 
	C727.044312,82.264076 771.198181,82.264076 816.477905,82.264076 
	C816.477905,155.818924 816.477905,229.266998 816.477905,303.384979 
	C894.017883,303.384979 970.436707,303.384979 1047.901489,303.384979 
	C1047.901489,229.614182 1047.901489,156.146652 1047.901489,82.180710 
	C1093.102417,82.180710 1137.260254,82.180710 1182.015625,82.180710 
	C1182.015625,273.339905 1182.015625,464.161682 1182.015625,655.655579 
	C1137.817871,655.655579 1093.637451,655.655579 1047.954834,655.655579 
	C1047.948364,576.399658 1047.955811,496.915314 1047.950439,417.566223 
	C1040.534546,415.328827 838.358276,414.404388 816.750793,416.526672 
	C816.750793,491.232758 816.750793,566.088623 816.750977,641.939697 
z"/>
<path fill="#676767" opacity="1.000000" stroke="none" 
	d="
M4439.375977,109.304092 
	C4442.940430,99.891556 4446.215820,91.202171 4449.604980,82.210007 
	C4496.273926,82.210007 4542.476074,82.210007 4590.095703,82.210007 
	C4661.883301,272.711945 4733.879395,463.766479 4806.209473,655.707458 
	C4757.036133,655.707458 4708.911133,655.707458 4659.632812,655.707458 
	C4646.282227,617.980225 4632.770996,579.799011 4619.080566,541.111816 
	C4551.015625,541.111816 4483.169434,541.111816 4413.952637,541.111816 
	C4400.564941,578.920349 4386.955078,617.355774 4373.293457,655.937378 
	C4326.801270,655.937378 4280.900879,655.937378 4233.375488,655.937378 
	C4302.143555,473.442688 4370.614746,291.734955 4439.375977,109.304092 
M4454.039551,409.013916 
	C4451.657715,417.743256 4447.024902,425.872375 4445.961914,435.425507 
	C4493.634766,435.425507 4540.222168,435.425507 4588.083496,435.425507 
	C4564.360352,366.991272 4540.884766,299.271637 4517.409668,231.551971 
	C4516.839355,231.507401 4516.269043,231.462830 4515.699219,231.418259 
	C4495.298340,290.112457 4474.896973,348.806671 4454.039551,409.013916 
z"/>
<path fill="#676767" opacity="1.000000" stroke="none" 
	d="
M3314.000000,81.677826 
	C3342.307373,81.677734 3369.614746,81.677734 3397.901367,81.677734 
	C3469.963867,272.919098 3541.979248,464.034851 3614.280762,655.910278 
	C3564.848877,655.910278 3516.625977,655.910278 3467.692139,655.910278 
	C3454.155029,617.646790 3440.638184,579.440247 3427.025146,540.961914 
	C3358.606689,540.961914 3290.722412,540.961914 3221.968750,540.961914 
	C3208.507812,579.045471 3194.994141,617.277344 3181.387207,655.773560 
	C3134.944336,655.773560 3088.803955,655.773560 3041.436035,655.773560 
	C3113.684570,464.033020 3185.599609,273.177643 3257.757324,81.677910 
	C3276.474609,81.677910 3294.737305,81.677910 3314.000000,81.677826 
M3323.000000,435.786072 
	C3346.937256,435.786072 3370.874512,435.786072 3396.204102,435.786072 
	C3372.359863,366.993500 3348.883545,299.262604 3325.406982,231.531708 
	C3324.835449,231.452332 3324.263672,231.372955 3323.692139,231.293594 
	C3300.230225,298.958099 3276.768311,366.622620 3252.786865,435.785919 
	C3276.618652,435.785919 3298.809326,435.785919 3323.000000,435.786072 
z"/>
<path fill="#FF5801" opacity="1.000000" stroke="none" 
	d="
M1554.000000,540.458130 
	C1506.703857,540.458191 1460.407715,540.458191 1413.153076,540.458191 
	C1399.469116,579.111450 1385.855591,617.565796 1372.312378,655.821655 
	C1325.654175,655.821655 1279.792480,655.821655 1232.447021,655.821655 
	C1304.701538,464.056061 1376.604492,273.223602 1448.614624,82.106720 
	C1495.467773,82.106720 1542.026001,82.106720 1589.048462,82.106720 
	C1661.023193,273.125519 1732.921021,463.940247 1805.184570,655.725708 
	C1755.711914,655.725708 1707.578735,655.725708 1658.631592,655.725708 
	C1645.206909,617.752319 1631.705688,579.562195 1617.881226,540.458008 
	C1596.783691,540.458008 1575.891846,540.458008 1554.000000,540.458130 
M1481.686890,326.569183 
	C1469.174194,362.609985 1456.661499,398.650787 1443.917603,435.357666 
	C1491.937256,435.357666 1538.745728,435.357666 1587.005737,435.357666 
	C1575.039185,400.711639 1563.493652,366.822601 1551.623779,333.047516 
	C1539.720459,299.177216 1528.546509,265.036163 1515.316040,229.529648 
	C1503.720581,262.878815 1492.913086,293.961853 1481.686890,326.569183 
z"/>
<path fill="#FF5801" opacity="1.000000" stroke="none" 
	d="
M304.302734,649.767090 
	C259.235352,634.553162 220.155624,611.170227 187.802017,577.114197 
	C149.749786,537.059692 126.792374,489.253387 116.877907,435.266693 
	C106.355164,377.967804 108.269066,320.958984 126.977135,265.506836 
	C157.394943,175.346146 219.846985,117.325302 309.737671,88.374313 
	C356.401978,73.345184 404.434052,70.609406 453.031189,75.345886 
	C492.869843,79.228729 531.109192,88.943352 566.526123,107.894325 
	C578.794006,114.458672 590.084595,122.874825 601.673157,130.665939 
	C604.640564,132.660995 607.042969,135.496506 609.969788,138.189575 
	C596.225037,175.018417 582.648865,211.395508 568.697693,248.777435 
	C566.309204,246.814468 564.607849,245.457352 562.950684,244.048218 
	C529.612854,215.700516 491.130859,198.573029 448.003540,191.975906 
	C414.398193,186.835312 381.367065,189.913879 349.811646,202.624817 
	C296.137482,224.245468 264.378052,264.776642 252.344452,320.708435 
	C244.293869,358.127380 245.115158,395.643066 257.630859,432.154266 
	C277.830688,491.081909 319.219391,527.817810 379.812958,539.469604 
	C450.841034,553.127747 515.370667,537.078125 570.188538,487.965515 
	C571.637024,486.667847 573.229309,485.530701 575.273926,483.905884 
	C590.189392,518.680420 604.866882,552.900269 619.901367,587.952393 
	C617.258423,590.642822 614.610596,593.529785 611.764648,596.206177 
	C576.039185,629.803406 533.425964,650.070679 485.716095,659.385986 
	C424.842712,671.271423 364.459686,668.926575 304.302734,649.767090 
z"/>
<path fill="#686868" opacity="1.000000" stroke="none" 
	d="
M4543.001465,909.003296 
	C4569.240234,883.342712 4594.430176,857.588806 4620.857910,833.174316 
	C4650.768066,805.542664 4683.046387,780.805359 4718.554688,760.573303 
	C4742.718262,746.805420 4768.054688,736.021484 4795.515137,730.744080 
	C4797.147949,730.430298 4798.798340,730.173950 4800.452637,730.025696 
	C4801.066895,729.970703 4801.715820,730.303589 4803.587891,730.764893 
	C4802.806152,734.699524 4802.133789,738.775574 4801.178711,742.784119 
	C4791.933105,781.578674 4776.779785,818.132202 4758.512695,853.421326 
	C4735.970215,896.969238 4711.664551,939.607788 4681.452637,978.289062 
	C4626.120605,1049.132446 4564.319336,1113.955566 4495.640625,1172.097046 
	C4480.895020,1184.580444 4466.229492,1197.159058 4450.591309,1210.491821 
	C4437.304199,1197.667114 4424.233398,1185.050903 4410.624023,1171.914673 
	C4405.123535,1174.221436 4399.475098,1176.142822 4394.242188,1178.862549 
	C4372.110840,1190.365479 4352.059082,1204.603516 4337.788574,1225.513916 
	C4317.952148,1254.580444 4292.594238,1277.861938 4263.856445,1297.751099 
	C4262.486816,1298.698853 4261.219238,1299.799927 4259.816406,1300.692749 
	C4236.968262,1315.235352 4217.759766,1333.192261 4205.483398,1357.829956 
	C4203.722656,1361.364014 4200.811523,1364.308105 4198.609863,1367.641968 
	C4186.378418,1386.162354 4158.961914,1388.275513 4142.237793,1377.685913 
	C4126.522461,1367.734741 4119.812988,1347.082642 4127.261719,1327.232056 
	C4129.986328,1319.969849 4134.513672,1312.820923 4139.881836,1307.212280 
	C4161.771484,1284.343140 4184.076660,1261.857910 4206.640137,1239.649292 
	C4318.521973,1129.527222 4430.533691,1019.537659 4543.001465,909.003296 
M4437.595215,1032.593018 
	C4412.812500,1057.066040 4388.029785,1081.539185 4362.897949,1106.356934 
	C4392.827637,1135.385010 4421.731934,1163.419067 4450.965332,1191.772461 
	C4454.062012,1189.315308 4456.703125,1187.327759 4459.227539,1185.200317 
	C4514.062012,1138.985352 4566.436035,1090.315552 4614.610840,1036.985107 
	C4664.056641,982.247681 4706.580566,922.995117 4740.877930,857.753479 
	C4757.646484,825.856934 4772.511719,793.170227 4782.759766,758.533142 
	C4783.722656,755.279297 4784.252441,751.897400 4785.192871,747.620361 
	C4781.527832,748.501038 4779.586426,748.871704 4777.703125,749.435303 
	C4758.771484,755.099487 4741.013184,763.447693 4723.970215,773.329041 
	C4685.124023,795.851257 4649.942383,823.345337 4617.895996,854.597290 
	C4557.772461,913.230225 4498.327637,972.559021 4437.595215,1032.593018 
z"/>
<path fill="#6A6A6A" opacity="1.000000" stroke="none" 
	d="
M3698.835205,763.183960 
	C3696.109131,755.720276 3693.383301,748.256470 3690.285156,739.773132 
	C3695.782227,736.548157 3701.420166,733.240540 3706.717773,730.132629 
	C3707.891357,730.311646 3708.680176,730.205505 3709.168701,730.539185 
	C3730.618408,745.190308 3752.120361,759.767883 3773.408447,774.651184 
	C3778.285400,778.060852 3782.848389,782.151733 3786.819092,786.588562 
	C3819.120850,822.682373 3839.610107,863.943176 3841.188232,913.235901 
	C3841.944092,936.836182 3835.125000,958.576660 3823.867920,980.175781 
	C3836.466553,1002.550476 3849.321289,1025.380615 3862.357666,1048.532837 
	C3874.902344,1045.666626 3880.626953,1052.840820 3886.058838,1062.338013 
	C3937.481934,1152.249390 3989.213623,1241.984619 4040.856934,1331.770142 
	C4043.181885,1335.812134 4045.584961,1339.810913 4047.827637,1343.897949 
	C4054.208252,1355.526733 4054.972168,1367.996826 4048.971924,1379.394653 
	C4038.380859,1399.514893 4021.859619,1411.805054 3998.099854,1412.351318 
	C3980.551514,1412.754639 3968.227783,1403.916016 3959.620361,1389.733643 
	C3946.835938,1368.668335 3934.682861,1347.217285 3922.400879,1325.849976 
	C3880.740723,1253.374634 3839.165283,1180.850708 3797.479248,1108.390503 
	C3793.823486,1102.036377 3791.258789,1095.980713 3795.339111,1088.721313 
	C3796.154541,1087.271118 3795.232178,1084.225586 3794.196289,1082.448730 
	C3782.790039,1062.883667 3771.122070,1043.470947 3759.736816,1023.893677 
	C3757.628418,1020.268372 3754.930420,1018.998779 3750.949219,1018.560547 
	C3742.362061,1017.615173 3733.747559,1016.561768 3725.294922,1014.819885 
	C3705.608887,1010.763184 3688.396240,1001.238037 3673.078369,988.637573 
	C3638.251953,959.990234 3615.126953,923.619446 3605.305176,879.574158 
	C3601.996826,864.738892 3601.875244,849.173340 3600.563232,833.918701 
	C3599.423096,820.663391 3598.658203,807.375671 3597.675293,793.352051 
	C3603.332275,790.017883 3608.964844,786.698059 3615.323975,782.950134 
	C3620.537354,789.430481 3625.497803,795.596497 3631.260254,802.567810 
	C3632.502197,803.418030 3632.941650,803.462891 3633.381348,803.507690 
	C3633.224365,802.716919 3633.067383,801.926086 3632.910645,801.135254 
	C3631.184082,793.117493 3629.457520,785.099792 3627.540771,776.199829 
	C3632.736328,773.092163 3637.970459,769.961487 3643.802979,766.472778 
	C3651.569336,773.944458 3658.890381,780.987854 3667.113525,788.772339 
	C3668.474854,789.510315 3668.934082,789.507324 3669.393311,789.504333 
	C3669.261230,788.702148 3669.129150,787.900024 3668.996826,787.097900 
	C3666.651855,777.138855 3664.307129,767.179810 3661.777588,756.435486 
	C3667.156250,753.211426 3672.447510,750.039734 3678.266602,746.551819 
	C3684.501221,752.533325 3690.434326,758.225586 3697.220215,764.649902 
	C3698.530762,765.396790 3698.988525,765.411621 3699.446533,765.426453 
	C3699.242920,764.678955 3699.039062,763.931458 3698.835205,763.183960 
M3718.583496,757.980530 
	C3717.911865,757.803833 3717.239990,757.627136 3716.568359,757.450439 
	C3716.910156,758.420227 3717.251709,759.389954 3717.732666,761.833252 
	C3720.033447,767.968506 3722.334473,774.103760 3724.839111,780.782104 
	C3716.857422,785.360779 3709.496826,789.583374 3702.806885,793.421204 
	C3696.520752,790.742188 3694.654053,783.534424 3687.046875,783.080994 
	C3688.167480,789.222595 3689.160400,794.663025 3690.262207,800.700623 
	C3682.690918,805.093384 3675.314941,809.372742 3667.831787,813.714417 
	C3662.575684,808.857056 3657.786377,804.430969 3651.163818,798.310852 
	C3653.110840,807.110779 3654.518311,813.472473 3656.069336,820.482483 
	C3648.545654,824.817322 3641.171387,829.066223 3633.926758,833.240295 
	C3628.171387,827.020752 3623.079346,821.517761 3617.877930,815.132507 
	C3617.496582,815.239929 3617.114990,815.347351 3616.733643,815.454651 
	C3617.165771,815.625305 3617.597656,815.795959 3617.166260,817.671448 
	C3617.537354,824.652527 3617.637695,831.660828 3618.336914,838.608887 
	C3619.767578,852.824036 3620.104736,867.347717 3623.425049,881.134338 
	C3631.160645,913.252808 3648.193115,940.643311 3671.252686,963.998108 
	C3688.607910,981.575745 3709.060059,994.635986 3733.905762,999.022583 
	C3744.656982,1000.920776 3755.631104,1001.556824 3767.243408,1002.848511 
	C3781.805664,1027.364380 3796.686523,1052.416504 3811.847656,1077.940308 
	C3824.330811,1070.689575 3835.655029,1064.112061 3847.345459,1057.321777 
	C3832.331055,1030.572754 3818.035400,1005.104004 3804.045898,980.180664 
	C3807.297852,973.982971 3810.310547,968.785950 3812.822021,963.357178 
	C3822.110840,943.277039 3825.535645,922.410217 3822.971191,900.200500 
	C3818.810547,864.165771 3802.793945,833.661560 3780.817139,805.804932 
	C3775.913330,799.589294 3770.106201,793.755005 3763.724854,789.103455 
	C3749.217285,778.528748 3734.094482,768.797974 3718.583496,757.980530 
M3984.526367,1268.540527 
	C3965.103271,1234.751587 3945.739258,1200.928467 3926.240479,1167.183472 
	C3906.838379,1133.606079 3887.864990,1099.771362 3867.876465,1066.164917 
	C3848.435791,1077.223511 3830.288574,1087.546387 3811.958984,1097.973022 
	C3813.903564,1101.710083 3815.181396,1104.399658 3816.659668,1106.974243 
	C3862.772217,1187.277466 3908.896729,1267.574219 3955.043213,1347.858276 
	C3961.184814,1358.543091 3967.322021,1369.234741 3973.696045,1379.781494 
	C3983.588623,1396.150757 3999.162598,1400.067871 4015.509521,1390.260620 
	C4019.477051,1387.880493 4023.313232,1385.051880 4026.597656,1381.809326 
	C4034.523682,1373.984375 4039.531494,1363.173462 4031.248047,1349.411011 
	C4015.447998,1323.160522 4000.564941,1296.358276 3984.526367,1268.540527 
M3687.144531,781.905212 
	C3687.299316,781.492065 3687.454346,781.078979 3687.609131,780.665833 
	C3687.199951,780.786133 3686.790527,780.906433 3687.144531,781.905212 
z"/>
<path fill="#717171" opacity="1.000000" stroke="none" 
	d="
M115.128601,945.999695 
	C115.129288,881.069641 115.129288,817.139648 115.129288,752.563232 
	C252.020248,752.563232 388.072662,752.563232 524.661133,752.563232 
	C524.661133,791.753967 524.661133,830.553223 524.661133,870.264404 
	C437.526459,870.264404 351.013977,870.264404 263.780823,870.264404 
	C263.780823,913.286560 263.780823,955.401917 263.780823,998.570801 
	C275.337921,1000.161865 286.893372,999.092407 298.370605,999.279602 
	C310.030762,999.469788 321.696381,999.321655 333.359619,999.321655 
	C345.022858,999.321655 356.686066,999.321655 368.349304,999.321655 
	C380.345764,999.321655 392.342224,999.321655 404.338684,999.321655 
	C416.001892,999.321655 427.665131,999.321655 439.328339,999.321655 
	C450.991577,999.321655 462.654785,999.321655 474.318024,999.321655 
	C485.939758,999.321655 497.561523,999.321594 509.734497,999.321594 
	C509.734497,1038.955200 509.734497,1077.771240 509.734497,1117.807617 
	C427.714539,1117.807617 345.950104,1117.807617 263.625092,1117.807617 
	C263.625092,1166.883789 263.625092,1214.745850 263.625092,1264.094604 
	C276.143036,1264.119629 288.669952,1264.155151 301.196869,1264.167236 
	C314.193024,1264.179932 327.189209,1264.170044 340.185364,1264.170044 
	C352.848297,1264.170044 365.511200,1264.170044 378.174133,1264.170044 
	C391.170288,1264.170044 404.166473,1264.170044 417.162628,1264.170044 
	C429.825562,1264.170044 442.488495,1264.170044 455.151428,1264.170044 
	C468.147583,1264.170044 481.143768,1264.170044 494.139923,1264.170044 
	C506.771362,1264.170044 519.402771,1264.170044 531.844788,1264.170044 
	C533.959229,1271.822510 534.460938,1370.787109 532.525208,1383.744995 
	C393.847961,1383.744995 255.070755,1383.744995 115.127922,1383.744995 
	C115.127922,1238.060059 115.127922,1092.529907 115.128601,945.999695 
M502.157745,1049.000244 
	C502.157745,1035.466431 502.157745,1021.932678 502.157745,1007.741150 
	C496.835144,1007.741150 492.885529,1007.741150 488.935883,1007.741150 
	C417.273621,1007.741150 345.611389,1007.741394 273.949127,1007.740173 
	C271.282715,1007.740112 268.603363,1007.892090 265.952271,1007.686523 
	C257.995270,1007.069458 255.255875,1004.367432 254.617706,996.617615 
	C254.454086,994.630432 254.560608,992.620056 254.560501,990.620361 
	C254.558456,953.622620 254.549133,916.624939 254.563766,879.627197 
	C254.570053,863.697571 256.234558,862.062622 272.355072,862.061462 
	C349.683655,862.055908 427.012238,862.058960 504.340820,862.058899 
	C508.229309,862.058838 512.117798,862.058838 516.230713,862.058838 
	C516.230713,827.533447 516.230713,794.348572 516.230713,760.714844 
	C385.241241,760.714844 254.801254,760.714844 124.444550,760.714844 
	C122.440392,776.757141 123.213608,1368.670044 125.164368,1375.629639 
	C147.473984,1377.649780 517.246887,1376.689697 524.513733,1374.592773 
	C526.315735,1356.785889 525.538879,1280.215088 523.229309,1272.340332 
	C519.551270,1272.340332 515.608826,1272.340332 511.666412,1272.340332 
	C432.337952,1272.340332 353.009521,1272.340576 273.681061,1272.339478 
	C271.014618,1272.339478 268.340363,1272.455933 265.683228,1272.294922 
	C257.777588,1271.816040 255.242889,1269.260620 254.609283,1261.188477 
	C254.453217,1259.200195 254.560440,1257.190552 254.560364,1255.190796 
	C254.558853,1212.526733 254.548431,1169.862671 254.564987,1127.198608 
	C254.571198,1111.195068 256.055023,1109.757080 272.395111,1109.755615 
	C345.057312,1109.749512 417.719513,1109.752808 490.381714,1109.752808 
	C493.959045,1109.752808 497.536407,1109.752930 502.157837,1109.752930 
	C502.157837,1089.476196 502.157837,1070.238159 502.157745,1049.000244 
z"/>
<path fill="#727272" opacity="1.000000" stroke="none" 
	d="
M1624.722168,1321.227051 
	C1616.279419,1314.186890 1608.385254,1307.599854 1599.814941,1300.448608 
	C1624.455322,1264.102295 1648.654541,1228.406738 1673.269531,1192.097656 
	C1676.406860,1194.968384 1678.822998,1197.163696 1681.222534,1199.376831 
	C1718.987427,1234.211548 1762.357178,1258.547607 1812.951050,1268.995728 
	C1836.270264,1273.811401 1859.408447,1272.615112 1881.778320,1263.927612 
	C1909.061646,1253.331909 1923.541504,1231.599854 1922.423706,1203.825684 
	C1921.934204,1191.666382 1917.542480,1181.141235 1909.641968,1172.022461 
	C1902.110474,1163.329956 1893.101807,1156.320801 1882.614258,1151.822876 
	C1863.045898,1143.430298 1843.219238,1135.630493 1823.413208,1127.803955 
	C1793.073364,1115.814575 1762.483154,1104.436523 1732.369019,1091.909668 
	C1721.080811,1087.214111 1710.412354,1080.657104 1700.175903,1073.870972 
	C1659.594116,1046.968262 1635.160278,1009.643982 1629.346436,960.898987 
	C1623.483765,911.741699 1631.640137,865.870117 1662.691406,825.859436 
	C1682.976562,799.721558 1709.148315,780.926636 1739.483276,768.356323 
	C1812.142334,738.247559 1885.769653,736.579102 1959.943237,762.729797 
	C1991.891235,773.993347 2021.781860,789.170593 2048.208984,810.648193 
	C2051.566650,813.376770 2054.745361,816.330750 2057.931885,819.261658 
	C2058.879883,820.133667 2059.572998,821.283142 2061.048828,823.146301 
	C2040.354126,857.064026 2019.607056,891.067627 1998.359131,925.892151 
	C1995.390503,923.381226 1992.928711,921.364929 1990.538330,919.266968 
	C1959.648926,892.157715 1924.600952,873.130188 1884.097168,864.933533 
	C1861.176514,860.295166 1838.338867,860.922302 1815.945435,867.982422 
	C1809.971069,869.866028 1804.045532,872.465210 1798.716919,875.742798 
	C1770.795776,892.916931 1765.994385,930.337036 1788.438965,954.251099 
	C1797.751831,964.173584 1809.367798,970.743652 1821.736572,975.861816 
	C1837.422241,982.352600 1853.349731,988.259521 1869.181763,994.395996 
	C1898.363159,1005.706787 1927.888550,1016.211609 1956.645386,1028.513916 
	C1988.577271,1042.174683 2016.774292,1061.522339 2038.196777,1089.543945 
	C2058.041504,1115.501465 2067.981689,1145.099854 2069.976318,1177.483154 
	C2071.821289,1207.441406 2068.540527,1236.707642 2057.190430,1264.757446 
	C2040.227173,1306.680298 2010.562988,1337.229614 1971.739502,1359.304199 
	C1936.441162,1379.374634 1898.133545,1389.884521 1857.898560,1394.005615 
	C1770.045166,1403.004150 1694.110107,1373.780518 1624.722168,1321.227051 
M1966.781250,773.984741 
	C1922.323975,756.341553 1876.273315,749.624390 1828.663574,754.221313 
	C1792.865601,757.677734 1758.527954,766.450928 1726.654541,783.605591 
	C1691.879272,802.322083 1664.693359,828.343933 1648.924927,865.153870 
	C1635.696411,896.035278 1633.567749,928.251282 1637.676758,961.209351 
	C1642.478027,999.721802 1659.982178,1031.160156 1689.780640,1055.918945 
	C1711.329712,1073.823730 1736.002075,1086.066406 1761.964478,1095.941040 
	C1797.120483,1109.312500 1832.495483,1122.123657 1867.460693,1135.972412 
	C1879.432495,1140.713989 1890.976196,1147.056396 1901.771729,1154.111694 
	C1914.250732,1162.267212 1923.566040,1173.613770 1928.018555,1188.325195 
	C1937.996582,1221.293091 1921.901855,1255.301392 1889.048218,1269.703003 
	C1864.164795,1280.611084 1838.205444,1282.478638 1811.723022,1277.092163 
	C1763.254639,1267.233765 1721.144897,1244.620972 1683.693481,1212.778076 
	C1680.779663,1210.300781 1677.810669,1207.888550 1674.372070,1205.035034 
	C1652.829468,1236.839478 1631.973999,1267.629517 1610.692505,1299.048706 
	C1617.046631,1304.289795 1622.541138,1309.089722 1628.307739,1313.537354 
	C1694.716064,1364.758179 1768.241821,1393.809326 1853.679077,1386.134033 
	C1894.355591,1382.479736 1932.981323,1372.069214 1968.532959,1351.706177 
	C2001.671143,1332.725586 2028.027222,1306.980835 2044.962891,1272.281128 
	C2059.845703,1241.787354 2064.120117,1209.356323 2061.705078,1175.961060 
	C2058.572266,1132.634644 2040.385132,1096.777710 2006.888550,1068.785767 
	C1983.814453,1049.503662 1957.358887,1036.494263 1929.465210,1025.975586 
	C1896.136353,1013.407288 1862.724243,1001.042908 1829.620239,987.904724 
	C1817.624268,983.143860 1805.829102,977.315918 1794.977295,970.360352 
	C1777.466187,959.136353 1767.275513,942.709412 1766.255127,921.496887 
	C1764.971191,894.807922 1780.273926,872.426086 1806.899536,862.408569 
	C1828.819824,854.161438 1851.573975,851.966431 1874.745117,855.187683 
	C1915.706299,860.882141 1951.665039,878.119507 1984.140381,903.212646 
	C1988.033447,906.220581 1991.868530,909.303467 1996.585205,913.026245 
	C2014.941895,882.960144 2032.873901,853.589844 2050.993164,823.912598 
	C2026.041626,801.537415 1998.082642,786.447693 1966.781250,773.984741 
z"/>
<path fill="#727272" opacity="1.000000" stroke="none" 
	d="
M1124.037842,1199.748291 
	C1147.176147,1261.210693 1170.089111,1321.929688 1193.011230,1382.672852 
	C1185.208008,1385.263672 1061.049805,1386.286865 1031.915161,1384.117920 
	C1017.241516,1342.594360 1002.407349,1300.616699 987.368347,1258.059326 
	C912.484680,1258.059326 837.632385,1258.059326 761.646851,1258.059326 
	C746.946960,1299.653320 732.119446,1341.608521 717.132812,1384.013672 
	C666.061157,1384.013672 615.272522,1384.013672 562.849182,1384.013672 
	C642.350281,1173.018188 721.519592,962.903259 800.824707,752.427856 
	C852.330444,752.427856 903.545837,752.427856 955.486206,752.427856 
	C1011.584045,901.257812 1067.698242,1050.131348 1124.037842,1199.748291 
M714.189026,1005.407349 
	C698.716370,1046.548828 683.253601,1087.694214 667.768372,1128.830933 
	C652.282654,1169.968750 636.742126,1211.085815 621.285156,1252.234375 
	C605.908569,1293.169312 590.066650,1333.936768 575.029419,1375.662109 
	C621.542603,1375.662109 666.435974,1375.662109 711.321960,1375.662109 
	C712.971985,1371.105835 714.475159,1367.048096 715.913940,1362.967773 
	C727.983765,1328.737549 740.029114,1294.498657 752.111450,1260.272949 
	C755.711182,1250.075806 757.198364,1248.882812 768.008057,1248.874512 
	C839.007446,1248.820068 910.006775,1248.816040 981.006165,1248.875610 
	C991.832397,1248.884644 993.106567,1249.927612 996.798645,1260.353882 
	C1009.247192,1295.507446 1021.634705,1330.682739 1034.065063,1365.842896 
	C1035.265991,1369.239990 1036.603027,1372.588867 1037.744263,1375.609131 
	C1085.745483,1375.609131 1132.888794,1375.609131 1181.580322,1375.609131 
	C1103.992554,1169.702271 1026.810913,964.873413 949.828247,760.572510 
	C901.209290,760.572510 853.969727,760.572510 806.636108,760.572510 
	C804.920654,765.019104 803.339294,769.041626 801.813416,773.085144 
	C772.773987,850.039368 743.740967,926.995911 714.189026,1005.407349 
z"/>
<path fill="#717171" opacity="1.000000" stroke="none" 
	d="
M1431.970825,942.000000 
	C1431.970825,1089.873047 1431.970825,1236.746216 1431.970825,1384.145020 
	C1382.193848,1384.145020 1333.339844,1384.145020 1283.259521,1384.145020 
	C1283.259521,1212.841919 1283.259521,1041.813721 1283.259521,869.823364 
	C1228.539307,869.823364 1175.030640,869.823364 1121.782715,869.823364 
	C1119.670410,861.692078 1118.984619,770.402344 1120.664795,753.506592 
	C1127.662964,751.542847 1576.614990,750.686768 1594.576660,752.682922 
	C1594.576660,791.082092 1594.576660,829.567688 1594.576660,869.207275 
	C1567.740967,870.164185 1540.909912,869.507202 1514.097656,869.626648 
	C1487.163330,869.746582 1460.228271,869.653015 1431.970825,869.653015 
	C1431.970825,893.934265 1431.970825,917.467163 1431.970825,942.000000 
M1485.000000,760.047974 
	C1366.714478,760.178345 1248.429077,760.308411 1130.143555,760.461792 
	C1129.881592,760.462158 1129.611206,760.796631 1129.361206,760.995789 
	C1129.100586,761.203369 1128.859741,761.435852 1128.820557,761.470703 
	C1128.820557,794.578491 1128.820557,827.439941 1128.820557,861.245789 
	C1133.082153,861.245789 1136.697510,861.245728 1140.312866,861.245789 
	C1184.632446,861.245911 1228.951904,861.244873 1273.271484,861.248535 
	C1275.937134,861.248779 1278.617188,861.114685 1281.265625,861.338379 
	C1288.048462,861.911316 1290.739502,864.469788 1291.489136,871.248169 
	C1291.817139,874.213379 1291.623169,877.239197 1291.623169,880.237488 
	C1291.627319,1041.187500 1291.626953,1202.137573 1291.626953,1363.087646 
	C1291.626953,1367.273071 1291.626953,1371.458496 1291.626953,1375.443848 
	C1311.978760,1377.537476 1416.394409,1376.698853 1423.839355,1374.391968 
	C1423.839355,1370.583496 1423.839355,1366.614136 1423.839355,1362.644775 
	C1423.839355,1201.361572 1423.838135,1040.078247 1423.841309,878.794983 
	C1423.841553,862.033936 1424.600464,861.257751 1441.351318,861.251648 
	C1485.670898,861.235535 1529.990479,861.258484 1574.310059,861.223755 
	C1578.166260,861.220764 1582.022217,860.907349 1586.240723,860.722229 
	C1586.240723,826.805420 1586.240723,793.984436 1586.240723,760.048035 
	C1552.803955,760.048035 1519.901978,760.048035 1485.000000,760.047974 
z"/>
<path fill="#FEFEFE" opacity="1.000000" stroke="none" 
	d="
M2716.078369,541.757324 
	C2716.078369,496.894501 2716.078369,452.999084 2716.078369,408.536194 
	C2718.523926,408.149536 2720.384521,407.597382 2722.244385,407.599976 
	C2751.541016,407.641022 2780.841064,407.528595 2810.133301,407.932892 
	C2828.041260,408.180054 2845.023926,412.325378 2860.383545,422.119110 
	C2883.923828,437.129333 2893.106201,459.307220 2890.950439,486.123993 
	C2888.021973,522.549255 2863.251221,547.213257 2826.063721,551.906189 
	C2816.514160,553.111267 2806.843994,553.768433 2797.219482,553.885986 
	C2773.251953,554.178589 2749.278809,554.027649 2725.308105,554.018494 
	C2722.690918,554.017517 2720.073975,553.779724 2716.078369,553.584351 
	C2716.078369,549.771790 2716.078369,546.248291 2716.078369,541.757324 
z"/>
<path fill="#FEFEFE" opacity="1.000000" stroke="none" 
	d="
M2756.000488,181.709808 
	C2773.283447,182.316681 2789.791748,181.427444 2805.804688,183.834259 
	C2841.905029,189.260269 2860.831787,213.150757 2860.156738,249.826706 
	C2859.552002,282.714630 2836.664795,308.081482 2802.656494,311.890015 
	C2785.840820,313.773193 2768.775391,313.553680 2751.815186,313.981293 
	C2740.257568,314.272675 2728.686768,314.036957 2716.612793,314.036957 
	C2716.612793,269.754700 2716.612793,226.573898 2716.612793,182.140564 
	C2723.027344,181.998154 2729.518311,181.799255 2736.010742,181.725555 
	C2742.339844,181.653702 2748.670654,181.709900 2756.000488,181.709808 
z"/>
<path fill="#FDFDFD" opacity="1.000000" stroke="none" 
	d="
M4454.267578,408.257385 
	C4474.896973,348.806671 4495.298340,290.112457 4515.699219,231.418259 
	C4516.269043,231.462830 4516.839355,231.507401 4517.409668,231.551971 
	C4540.884766,299.271637 4564.360352,366.991272 4588.083496,435.425507 
	C4540.222168,435.425507 4493.634766,435.425507 4445.961914,435.425507 
	C4447.024902,425.872375 4451.657715,417.743256 4454.267578,408.257385 
z"/>
<path fill="#FDFDFD" opacity="1.000000" stroke="none" 
	d="
M3322.000000,435.786011 
	C3298.809326,435.785919 3276.618652,435.785919 3252.786865,435.785919 
	C3276.768311,366.622620 3300.230225,298.958099 3323.692139,231.293594 
	C3324.263672,231.372955 3324.835449,231.452332 3325.406982,231.531708 
	C3348.883545,299.262604 3372.359863,366.993500 3396.204102,435.786072 
	C3370.874512,435.786072 3346.937256,435.786072 3322.000000,435.786011 
z"/>
<path fill="#FFFDFC" opacity="1.000000" stroke="none" 
	d="
M1481.896240,325.807037 
	C1492.913086,293.961853 1503.720581,262.878815 1515.316040,229.529648 
	C1528.546509,265.036163 1539.720459,299.177216 1551.623779,333.047516 
	C1563.493652,366.822601 1575.039185,400.711639 1587.005737,435.357666 
	C1538.745728,435.357666 1491.937256,435.357666 1443.917603,435.357666 
	C1456.661499,398.650787 1469.174194,362.609985 1481.896240,325.807037 
z"/>
<path fill="#FEFEFE" opacity="1.000000" stroke="none" 
	d="
M4438.097656,1032.095703 
	C4498.327637,972.559021 4557.772461,913.230225 4617.895996,854.597290 
	C4649.942383,823.345337 4685.124023,795.851257 4723.970215,773.329041 
	C4741.013184,763.447693 4758.771484,755.099487 4777.703125,749.435303 
	C4779.586426,748.871704 4781.527832,748.501038 4785.192871,747.620361 
	C4784.252441,751.897400 4783.722656,755.279297 4782.759766,758.533142 
	C4772.511719,793.170227 4757.646484,825.856934 4740.877930,857.753479 
	C4706.580566,922.995117 4664.056641,982.247681 4614.610840,1036.985107 
	C4566.436035,1090.315552 4514.062012,1138.985352 4459.227539,1185.200317 
	C4456.703125,1187.327759 4454.062012,1189.315308 4450.965332,1191.772461 
	C4421.731934,1163.419067 4392.827637,1135.385010 4362.897949,1106.356934 
	C4388.029785,1081.539185 4412.812500,1057.066040 4438.097656,1032.095703 
z"/>
<path fill="#FEFEFE" opacity="1.000000" stroke="none" 
	d="
M3617.987305,816.014832 
	C3623.079346,821.517761 3628.171387,827.020752 3633.926758,833.240295 
	C3641.171387,829.066223 3648.545654,824.817322 3656.069336,820.482483 
	C3654.518311,813.472473 3653.110840,807.110779 3651.163818,798.310852 
	C3657.786377,804.430969 3662.575684,808.857056 3667.831787,813.714417 
	C3675.314941,809.372742 3682.690918,805.093384 3690.262207,800.700623 
	C3689.160400,794.663025 3688.167480,789.222595 3687.046875,783.080994 
	C3694.654053,783.534424 3696.520752,790.742188 3702.806885,793.421204 
	C3709.496826,789.583374 3716.857422,785.360779 3724.839111,780.782104 
	C3722.334473,774.103760 3720.033447,767.968506 3718.090332,760.707764 
	C3718.706299,759.296204 3718.964111,759.010132 3719.221924,758.724121 
	C3734.094482,768.797974 3749.217285,778.528748 3763.724854,789.103455 
	C3770.106201,793.755005 3775.913330,799.589294 3780.817139,805.804932 
	C3802.793945,833.661560 3818.810547,864.165771 3822.971191,900.200500 
	C3825.535645,922.410217 3822.110840,943.277039 3812.822021,963.357178 
	C3810.310547,968.785950 3807.297852,973.982971 3804.045898,980.180664 
	C3818.035400,1005.104004 3832.331055,1030.572754 3847.345459,1057.321777 
	C3835.655029,1064.112061 3824.330811,1070.689575 3811.847656,1077.940308 
	C3796.686523,1052.416504 3781.805664,1027.364380 3767.243408,1002.848511 
	C3755.631104,1001.556824 3744.656982,1000.920776 3733.905762,999.022583 
	C3709.060059,994.635986 3688.607910,981.575745 3671.252686,963.998108 
	C3648.193115,940.643311 3631.160645,913.252808 3623.425049,881.134338 
	C3620.104736,867.347717 3619.767578,852.824036 3618.336914,838.608887 
	C3617.637695,831.660828 3617.537354,824.652527 3617.585449,816.833130 
	C3618.004639,815.994812 3617.987061,816.014893 3617.987305,816.014832 
z"/>
<path fill="#FDFDFD" opacity="1.000000" stroke="none" 
	d="
M3984.913574,1269.162842 
	C4000.564941,1296.358276 4015.447998,1323.160522 4031.248047,1349.411011 
	C4039.531494,1363.173462 4034.523682,1373.984375 4026.597656,1381.809326 
	C4023.313232,1385.051880 4019.477051,1387.880493 4015.509521,1390.260620 
	C3999.162598,1400.067871 3983.588623,1396.150757 3973.696045,1379.781494 
	C3967.322021,1369.234741 3961.184814,1358.543091 3955.043213,1347.858276 
	C3908.896729,1267.574219 3862.772217,1187.277466 3816.659668,1106.974243 
	C3815.181396,1104.399658 3813.903564,1101.710083 3811.958984,1097.973022 
	C3830.288574,1087.546387 3848.435791,1077.223511 3867.876465,1066.164917 
	C3887.864990,1099.771362 3906.838379,1133.606079 3926.240479,1167.183472 
	C3945.739258,1200.928467 3965.103271,1234.751587 3984.913574,1269.162842 
z"/>
<path fill="#FEFEFE" opacity="1.000000" stroke="none" 
	d="
M3718.020752,759.971008 
	C3717.251709,759.389954 3716.910156,758.420227 3716.568359,757.450439 
	C3717.239990,757.627136 3717.911865,757.803833 3718.902832,758.352295 
	C3718.964111,759.010132 3718.706299,759.296204 3718.020752,759.971008 
z"/>
<path fill="#FEFEFE" opacity="1.000000" stroke="none" 
	d="
M3686.762939,781.465942 
	C3686.790527,780.906433 3687.199951,780.786133 3687.609131,780.665833 
	C3687.454346,781.078979 3687.299316,781.492065 3686.762939,781.465942 
z"/>
<path fill="#FFFFFF" opacity="1.000000" stroke="none" 
	d="
M3668.601562,787.455688 
	C3669.129150,787.900024 3669.261230,788.702148 3669.393311,789.504333 
	C3668.934082,789.507324 3668.474854,789.510315 3667.730957,789.037720 
	C3667.699707,788.312561 3667.953125,788.063049 3668.601562,787.455688 
z"/>
<path fill="#FFFFFF" opacity="1.000000" stroke="none" 
	d="
M3632.600586,801.426147 
	C3633.067383,801.926086 3633.224365,802.716919 3633.381348,803.507690 
	C3632.941650,803.462891 3632.502197,803.418030 3631.877930,802.847534 
	C3631.693115,802.321838 3632.290527,801.716980 3632.600586,801.426147 
z"/>
<path fill="#FEFEFE" opacity="1.000000" stroke="none" 
	d="
M3618.017090,815.980713 
	C3617.597656,815.795959 3617.165771,815.625305 3616.733643,815.454712 
	C3617.114990,815.347351 3617.496582,815.239929 3617.932617,815.573730 
	C3617.987061,816.014893 3618.004639,815.994812 3618.017090,815.980713 
z"/>
<path fill="#FFFFFF" opacity="1.000000" stroke="none" 
	d="
M3698.530762,763.481262 
	C3699.039062,763.931458 3699.242920,764.678955 3699.446533,765.426453 
	C3698.988525,765.411621 3698.530762,765.396790 3697.851318,764.883423 
	C3697.629883,764.384888 3698.226562,763.778564 3698.530762,763.481262 
z"/>
<path fill="#FFFFFF" opacity="1.000000" stroke="none" 
	d="
M502.157776,1050.000244 
	C502.157837,1070.238159 502.157837,1089.476196 502.157837,1109.752930 
	C497.536407,1109.752930 493.959045,1109.752808 490.381714,1109.752808 
	C417.719513,1109.752808 345.057312,1109.749512 272.395111,1109.755615 
	C256.055023,1109.757080 254.571198,1111.195068 254.564987,1127.198608 
	C254.548431,1169.862671 254.558853,1212.526733 254.560364,1255.190796 
	C254.560440,1257.190552 254.453217,1259.200195 254.609283,1261.188477 
	C255.242889,1269.260620 257.777588,1271.816040 265.683228,1272.294922 
	C268.340363,1272.455933 271.014618,1272.339478 273.681061,1272.339478 
	C353.009521,1272.340576 432.337952,1272.340332 511.666412,1272.340332 
	C515.608826,1272.340332 519.551270,1272.340332 523.229309,1272.340332 
	C525.538879,1280.215088 526.315735,1356.785889 524.513733,1374.592773 
	C517.246887,1376.689697 147.473984,1377.649780 125.164368,1375.629639 
	C123.213608,1368.670044 122.440392,776.757141 124.444550,760.714844 
	C254.801254,760.714844 385.241241,760.714844 516.230713,760.714844 
	C516.230713,794.348572 516.230713,827.533447 516.230713,862.058838 
	C512.117798,862.058838 508.229309,862.058838 504.340820,862.058899 
	C427.012238,862.058960 349.683655,862.055908 272.355072,862.061462 
	C256.234558,862.062622 254.570053,863.697571 254.563766,879.627197 
	C254.549133,916.624939 254.558456,953.622620 254.560501,990.620361 
	C254.560608,992.620056 254.454086,994.630432 254.617706,996.617615 
	C255.255875,1004.367432 257.995270,1007.069458 265.952271,1007.686523 
	C268.603363,1007.892090 271.282715,1007.740112 273.949127,1007.740173 
	C345.611389,1007.741394 417.273621,1007.741150 488.935883,1007.741150 
	C492.885529,1007.741150 496.835144,1007.741150 502.157745,1007.741150 
	C502.157745,1021.932678 502.157745,1035.466431 502.157776,1050.000244 
z"/>
<path fill="#FEFEFE" opacity="1.000000" stroke="none" 
	d="
M1967.513916,774.229065 
	C1998.082642,786.447693 2026.041626,801.537415 2050.993164,823.912598 
	C2032.873901,853.589844 2014.941895,882.960144 1996.585205,913.026245 
	C1991.868530,909.303467 1988.033447,906.220581 1984.140381,903.212646 
	C1951.665039,878.119507 1915.706299,860.882141 1874.745117,855.187683 
	C1851.573975,851.966431 1828.819824,854.161438 1806.899536,862.408569 
	C1780.273926,872.426086 1764.971191,894.807922 1766.255127,921.496887 
	C1767.275513,942.709412 1777.466187,959.136353 1794.977295,970.360352 
	C1805.829102,977.315918 1817.624268,983.143860 1829.620239,987.904724 
	C1862.724243,1001.042908 1896.136353,1013.407288 1929.465210,1025.975586 
	C1957.358887,1036.494263 1983.814453,1049.503662 2006.888550,1068.785767 
	C2040.385132,1096.777710 2058.572266,1132.634644 2061.705078,1175.961060 
	C2064.120117,1209.356323 2059.845703,1241.787354 2044.962891,1272.281128 
	C2028.027222,1306.980835 2001.671143,1332.725586 1968.532959,1351.706177 
	C1932.981323,1372.069214 1894.355591,1382.479736 1853.679077,1386.134033 
	C1768.241821,1393.809326 1694.716064,1364.758179 1628.307739,1313.537354 
	C1622.541138,1309.089722 1617.046631,1304.289795 1610.692505,1299.048706 
	C1631.973999,1267.629517 1652.829468,1236.839478 1674.372070,1205.035034 
	C1677.810669,1207.888550 1680.779663,1210.300781 1683.693481,1212.778076 
	C1721.144897,1244.620972 1763.254639,1267.233765 1811.723022,1277.092163 
	C1838.205444,1282.478638 1864.164795,1280.611084 1889.048218,1269.703003 
	C1921.901855,1255.301392 1937.996582,1221.293091 1928.018555,1188.325195 
	C1923.566040,1173.613770 1914.250732,1162.267212 1901.771729,1154.111694 
	C1890.976196,1147.056396 1879.432495,1140.713989 1867.460693,1135.972412 
	C1832.495483,1122.123657 1797.120483,1109.312500 1761.964478,1095.941040 
	C1736.002075,1086.066406 1711.329712,1073.823730 1689.780640,1055.918945 
	C1659.982178,1031.160156 1642.478027,999.721802 1637.676758,961.209351 
	C1633.567749,928.251282 1635.696411,896.035278 1648.924927,865.153870 
	C1664.693359,828.343933 1691.879272,802.322083 1726.654541,783.605591 
	C1758.527954,766.450928 1792.865601,757.677734 1828.663574,754.221313 
	C1876.273315,749.624390 1922.323975,756.341553 1967.513916,774.229065 
z"/>
<path fill="#FEFEFE" opacity="1.000000" stroke="none" 
	d="
M714.447876,1004.679688 
	C743.740967,926.995911 772.773987,850.039368 801.813416,773.085144 
	C803.339294,769.041626 804.920654,765.019104 806.636108,760.572510 
	C853.969727,760.572510 901.209290,760.572510 949.828247,760.572510 
	C1026.810913,964.873413 1103.992554,1169.702271 1181.580322,1375.609131 
	C1132.888794,1375.609131 1085.745483,1375.609131 1037.744263,1375.609131 
	C1036.603027,1372.588867 1035.265991,1369.239990 1034.065063,1365.842896 
	C1021.634705,1330.682739 1009.247192,1295.507446 996.798645,1260.353882 
	C993.106567,1249.927612 991.832397,1248.884644 981.006165,1248.875610 
	C910.006775,1248.816040 839.007446,1248.820068 768.008057,1248.874512 
	C757.198364,1248.882812 755.711182,1250.075806 752.111450,1260.272949 
	C740.029114,1294.498657 727.983765,1328.737549 715.913940,1362.967773 
	C714.475159,1367.048096 712.971985,1371.105835 711.321960,1375.662109 
	C666.435974,1375.662109 621.542603,1375.662109 575.029419,1375.662109 
	C590.066650,1333.936768 605.908569,1293.169312 621.285156,1252.234375 
	C636.742126,1211.085815 652.282654,1169.968750 667.768372,1128.830933 
	C683.253601,1087.694214 698.716370,1046.548828 714.447876,1004.679688 
M809.218140,1149.813965 
	C854.518799,1149.813843 899.822876,1149.501343 945.117859,1150.008789 
	C958.266541,1150.156250 963.725891,1146.076416 958.385620,1131.119995 
	C938.134827,1074.404785 918.693115,1017.400818 898.957825,960.501770 
	C893.941895,946.040344 888.954651,931.568970 883.963867,917.098816 
	C882.310547,912.305359 880.892151,907.423401 874.262756,907.542114 
	C867.591248,907.661621 866.557251,912.831604 864.866638,917.505371 
	C864.753357,917.818481 864.634583,918.129761 864.525452,918.444336 
	C839.895325,989.494141 815.265198,1060.543823 790.639709,1131.595215 
	C789.877014,1133.795898 788.952209,1135.968506 788.467346,1138.232300 
	C787.120178,1144.522461 789.959106,1148.796875 796.322632,1149.622070 
	C799.930054,1150.089722 803.638855,1149.775757 809.218140,1149.813965 
z"/>
<path fill="#FEFEFE" opacity="1.000000" stroke="none" 
	d="
M1486.000000,760.047974 
	C1519.901978,760.048035 1552.803955,760.048035 1586.240723,760.048035 
	C1586.240723,793.984436 1586.240723,826.805420 1586.240723,860.722229 
	C1582.022217,860.907349 1578.166260,861.220764 1574.310059,861.223755 
	C1529.990479,861.258484 1485.670898,861.235535 1441.351318,861.251648 
	C1424.600464,861.257751 1423.841553,862.033936 1423.841309,878.794983 
	C1423.838135,1040.078247 1423.839355,1201.361572 1423.839355,1362.644775 
	C1423.839355,1366.614136 1423.839355,1370.583496 1423.839355,1374.391968 
	C1416.394409,1376.698853 1311.978760,1377.537476 1291.626953,1375.443848 
	C1291.626953,1371.458496 1291.626953,1367.273071 1291.626953,1363.087646 
	C1291.626953,1202.137573 1291.627319,1041.187500 1291.623169,880.237488 
	C1291.623169,877.239197 1291.817139,874.213379 1291.489136,871.248169 
	C1290.739502,864.469788 1288.048462,861.911316 1281.265625,861.338379 
	C1278.617188,861.114685 1275.937134,861.248779 1273.271484,861.248535 
	C1228.951904,861.244873 1184.632446,861.245911 1140.312866,861.245789 
	C1136.697510,861.245728 1133.082153,861.245789 1128.820557,861.245789 
	C1128.820557,827.439941 1128.820557,794.578491 1128.820557,761.470703 
	C1128.859741,761.435852 1129.100586,761.203369 1129.361206,760.995789 
	C1129.611206,760.796631 1129.881592,760.462158 1130.143555,760.461792 
	C1248.429077,760.308411 1366.714478,760.178345 1486.000000,760.047974 
z"/>
<path fill="#717171" opacity="1.000000" stroke="none" 
	d="
M808.260071,1149.813843 
	C803.638855,1149.775757 799.930054,1150.089722 796.322632,1149.622070 
	C789.959106,1148.796875 787.120178,1144.522461 788.467346,1138.232300 
	C788.952209,1135.968506 789.877014,1133.795898 790.639709,1131.595215 
	C815.265198,1060.543823 839.895325,989.494141 864.525452,918.444336 
	C864.634583,918.129761 864.753357,917.818481 864.866638,917.505371 
	C866.557251,912.831604 867.591248,907.661621 874.262756,907.542114 
	C880.892151,907.423401 882.310547,912.305359 883.963867,917.098816 
	C888.954651,931.568970 893.941895,946.040344 898.957825,960.501770 
	C918.693115,1017.400818 938.134827,1074.404785 958.385620,1131.119995 
	C963.725891,1146.076416 958.266541,1150.156250 945.117859,1150.008789 
	C899.822876,1149.501343 854.518799,1149.813843 808.260071,1149.813843 
M940.335144,1104.770996 
	C918.775635,1042.488892 897.216187,980.206787 875.656677,917.924683 
	C874.880005,917.959961 874.103333,917.995239 873.326660,918.030518 
	C847.594238,992.263672 821.861816,1066.496826 796.053833,1140.947876 
	C848.825684,1140.947876 900.227661,1140.947876 951.545959,1140.947876 
	C951.710632,1139.607300 952.021362,1138.885742 951.834534,1138.331909 
	C948.220215,1127.620483 944.547668,1116.928833 940.335144,1104.770996 
z"/>
<path fill="#FDFDFD" opacity="1.000000" stroke="none" 
	d="
M940.611084,1105.501953 
	C944.547668,1116.928833 948.220215,1127.620483 951.834534,1138.331909 
	C952.021362,1138.885742 951.710632,1139.607300 951.545959,1140.947876 
	C900.227661,1140.947876 848.825684,1140.947876 796.053833,1140.947876 
	C821.861816,1066.496826 847.594238,992.263672 873.326660,918.030518 
	C874.103333,917.995239 874.880005,917.959961 875.656677,917.924683 
	C897.216187,980.206787 918.775635,1042.488892 940.611084,1105.501953 
z"/>
</svg>