<?xml version="1.0" encoding="UTF-8"?>
<svg id="Layer_1" data-name="Layer 1" xmlns="http://www.w3.org/2000/svg" viewBox="0 0 4000 1443.03">
  <defs>
    <style>
      .cls-1 {
        fill: #010101;
      }

      .cls-2 {
        fill: #f99f20;
      }
    </style>
  </defs>
  <g>
    <g>
      <path class="cls-1" d="M2228.87,263.41v52.27c-8.97-10.95-17.01-18.47-24.13-22.55-6.99-4.2-15.21-6.29-24.65-6.29-14.8,0-27.1,5.19-36.89,15.56-9.79,10.37-14.69,23.37-14.69,38.99s4.72,29.08,14.16,39.34c9.56,10.26,21.74,15.38,36.54,15.38,9.44,0,17.78-2.04,25-6.12,6.99-3.96,15.21-11.65,24.65-23.08v51.92c-15.96,8.28-31.93,12.41-47.9,12.41-26.34,0-48.37-8.51-66.08-25.52-17.71-17.13-26.57-38.4-26.57-63.81s8.98-46.85,26.92-64.33c17.95-17.48,39.98-26.22,66.08-26.22,16.78,0,32.64,4.02,47.55,12.06Z"/>
      <path class="cls-1" d="M2276.25,131.07h39.34v139.16c13.99-12.59,29.43-18.88,46.33-18.88,19.23,0,34.61,6.24,46.15,18.71,9.79,10.84,14.69,28.15,14.69,51.92v104.37h-39.34v-100.7c0-13.64-2.42-23.51-7.26-29.63-4.84-6.12-12.62-9.18-23.34-9.18-13.75,0-23.43,4.26-29.02,12.76-5.48,8.63-8.22,23.43-8.22,44.4v82.34h-39.34V131.07Z"/>
      <path class="cls-1" d="M2598.1,256.07h39.51v170.28h-39.51v-17.83c-16.2,15.15-33.62,22.73-52.27,22.73-23.54,0-43.01-8.51-58.39-25.52-15.27-17.36-22.9-39.04-22.9-65.03s7.64-46.79,22.9-63.81c15.27-17.01,34.38-25.52,57.34-25.52,19.81,0,37.59,8.16,53.32,24.48v-19.75ZM2504.74,340.68c0,16.32,4.37,29.6,13.11,39.86,8.98,10.37,20.28,15.56,33.92,15.56,14.57,0,26.34-5.01,35.31-15.03,8.98-10.37,13.46-23.54,13.46-39.51s-4.49-29.14-13.46-39.51c-8.97-10.14-20.63-15.21-34.96-15.21-13.52,0-24.82,5.13-33.92,15.38-8.97,10.37-13.46,23.2-13.46,38.46Z"/>
      <path class="cls-1" d="M2687.26,256.07h39.34v15.73c7.58-7.92,14.05-13.29,19.41-16.08,5.71-2.91,12.88-4.37,21.5-4.37,19.23,0,34.44,8.39,45.63,25.17,12.36-16.78,29.08-25.17,50.17-25.17,38.35,0,57.52,23.25,57.52,69.75v105.24h-39.51v-94.58c0-16.31-1.98-27.85-5.94-34.61-4.08-6.87-10.78-10.31-20.1-10.31-10.84,0-18.73,4.08-23.69,12.24-4.95,8.16-7.43,21.27-7.43,39.34v87.94h-39.51v-94.05c0-30.3-8.74-45.45-26.22-45.45-11.07,0-19.14,4.14-24.21,12.41-5.07,8.28-7.6,21.33-7.6,39.16v87.94h-39.34v-170.28Z"/>
      <path class="cls-1" d="M3009.8,131.07v144.75c15.73-16.31,33.57-24.48,53.5-24.48,22.96,0,42.08,8.57,57.34,25.7,15.27,17.02,22.9,38.23,22.9,63.64s-7.69,47.9-23.08,65.03c-15.27,17.02-34.56,25.52-57.87,25.52-19.7,0-37.29-7.57-52.8-22.73v17.83h-39.34V131.07h39.34ZM3103.33,342.43c0-16.31-4.43-29.6-13.29-39.86-8.97-10.49-20.22-15.73-33.74-15.73-14.45,0-26.22,5.07-35.31,15.21-8.97,10.02-13.46,23.08-13.46,39.16s4.43,29.78,13.29,39.68c8.86,10.14,20.51,15.21,34.96,15.21,13.64,0,24.94-5.07,33.92-15.21,9.09-10.25,13.64-23.08,13.64-38.46Z"/>
      <path class="cls-1" d="M3310.67,256.07h39.51v170.28h-39.51v-17.83c-16.2,15.15-33.62,22.73-52.27,22.73-23.54,0-43.01-8.51-58.39-25.52-15.27-17.36-22.9-39.04-22.9-65.03s7.64-46.79,22.9-63.81c15.27-17.01,34.38-25.52,57.34-25.52,19.81,0,37.59,8.16,53.32,24.48v-19.75ZM3217.32,340.68c0,16.32,4.37,29.6,13.11,39.86,8.98,10.37,20.28,15.56,33.92,15.56,14.57,0,26.34-5.01,35.31-15.03,8.98-10.37,13.46-23.54,13.46-39.51s-4.49-29.14-13.46-39.51c-8.97-10.14-20.63-15.21-34.96-15.21-13.52,0-24.82,5.13-33.92,15.38-8.97,10.37-13.46,23.2-13.46,38.46Z"/>
      <path class="cls-1" d="M3399.83,256.07h39.51v15.73c13.76-13.64,29.25-20.45,46.5-20.45,19.81,0,35.26,6.24,46.33,18.71,9.56,10.61,14.34,27.92,14.34,51.92v104.37h-39.51v-95.1c0-16.78-2.33-28.38-6.99-34.79-4.55-6.52-12.82-9.79-24.82-9.79-13.05,0-22.32,4.31-27.8,12.94-5.36,8.51-8.04,23.37-8.04,44.58v82.17h-39.51v-170.28Z"/>
      <path class="cls-1" d="M3721.68,256.07h39.51v170.28h-39.51v-17.83c-16.2,15.15-33.62,22.73-52.27,22.73-23.54,0-43.01-8.51-58.39-25.52-15.27-17.36-22.9-39.04-22.9-65.03s7.64-46.79,22.9-63.81c15.27-17.01,34.38-25.52,57.34-25.52,19.81,0,37.59,8.16,53.32,24.48v-19.75ZM3628.32,340.68c0,16.32,4.37,29.6,13.11,39.86,8.98,10.37,20.28,15.56,33.92,15.56,14.57,0,26.34-5.01,35.31-15.03,8.98-10.37,13.46-23.54,13.46-39.51s-4.49-29.14-13.46-39.51c-8.97-10.14-20.63-15.21-34.96-15.21-13.52,0-24.82,5.13-33.92,15.38-8.97,10.37-13.46,23.2-13.46,38.46Z"/>
    </g>
    <g>
      <path class="cls-1" d="M2474.2,668.72h-280.35v168.03h272.2v99.19h-272.2v233.7h280.35v99.18h-385.88v-699.29h385.88v99.19Z"/>
      <path class="cls-1" d="M2982.47,1098.98h-299.38l-77.9,169.84h-113.68l346.02-743.22,333.79,743.22h-115.49l-73.37-169.84ZM2939.44,999.79l-103.71-237.78-108.7,237.78h212.41Z"/>
      <path class="cls-1" d="M3770.81,673.26l-85.6,50.73c-16.01-27.78-31.25-45.89-45.75-54.35-15.1-9.66-34.58-14.49-58.42-14.49-29.29,0-53.6,8.31-72.92,24.91-19.33,16.3-28.99,36.84-28.99,61.6,0,34.12,25.36,61.6,76.09,82.43l69.75,28.53c56.76,22.95,98.28,50.95,124.55,84.01,26.27,33.07,39.4,73.6,39.4,121.61,0,64.31-21.44,117.46-64.31,159.42-43.18,42.28-96.77,63.41-160.78,63.41-60.69,0-110.82-17.96-150.37-53.89-38.95-35.93-63.26-86.51-72.92-151.73l106.89-23.55c4.83,41.07,13.28,69.45,25.36,85.15,21.74,30.2,53.44,45.29,95.11,45.29,32.91,0,60.24-11.01,81.98-33.06,21.74-22.04,32.61-49.97,32.61-83.79,0-13.59-1.89-26.04-5.66-37.37-3.78-11.32-9.67-21.74-17.67-31.25-8-9.51-18.34-18.41-31.02-26.72-12.68-8.3-27.79-16.22-45.29-23.77l-67.49-28.08c-95.72-40.46-143.57-99.64-143.57-177.54,0-52.54,20.07-96.47,60.23-131.8,40.16-35.62,90.13-53.44,149.92-53.44,80.62,0,143.57,39.26,188.86,117.76Z"/>
      <path class="cls-1" d="M3413.04,593.28c10.09-8.95,20.81-16.84,32.07-23.76h-407.59v99.19h160.78v600.1h105.53v-600.1h55.02c11.1-28.22,29.19-53.44,54.19-75.43Z"/>
    </g>
  </g>
  <g>
    <circle class="cls-2" cx="1046.22" cy="228.29" r="97.22"/>
    <path class="cls-2" d="M1724.34,944.33c-45.36-334-331.68-591.41-678.13-591.41S413.46,610.33,368.09,944.33c-6.69,49.23,31.97,92.97,81.65,92.97h1192.95c49.68,0,88.34-43.74,81.65-92.97ZM1480.88,904.69h-869.33c-36.2,0-64.37-25.88-59.5-55.01,33.06-197.63,241.71-349.94,494.17-349.94s461.11,152.31,494.17,349.94c4.87,29.13-23.3,55.01-59.5,55.01Z"/>
    <path class="cls-2" d="M1848.79,1085.17H243.65c-36.62,0-66.31,29.69-66.31,66.31h0c0,36.62,29.69,66.31,66.31,66.31h58.81c1.59,35.21,30.63,63.28,66.24,63.28h1356.26c35.6,0,64.65-28.06,66.24-63.28h57.6c36.62,0,66.31-29.69,66.31-66.31h0c0-36.62-29.69-66.31-66.31-66.31Z"/>
  </g>
</svg>