<svg version="1.1" id="Layer_1" xmlns="http://www.w3.org/2000/svg" xmlns:xlink="http://www.w3.org/1999/xlink" x="0px" y="0px"
	 width="100%" viewBox="0 0 1000 1000" enable-background="new 0 0 1000 1000" xml:space="preserve">
<path fill="#FFFEFE" opacity="1.000000" stroke="none" 
	d="
M1001.000000,342.000000 
	C1001.000000,562.000000 1001.000000,781.500000 1001.000000,1001.000000 
	C667.666687,1001.000000 334.333344,1001.000000 1.000000,1001.000000 
	C1.000000,667.666687 1.000000,334.333344 1.000000,1.000000 
	C334.333344,1.000000 667.666687,1.000000 1001.000000,1.000000 
	C1001.000000,114.500000 1001.000000,228.000000 1001.000000,342.000000 
M745.500671,18.949797 
	C739.545776,18.949797 733.590820,18.949797 727.325439,18.949797 
	C721.666138,95.787140 716.044128,172.117233 710.401367,248.729736 
	C728.158875,248.729736 745.560669,248.729736 763.278442,248.729736 
	C765.976746,196.661240 768.661987,144.844009 771.347229,93.026794 
	C771.784973,93.007202 772.222778,92.987617 772.660583,92.968033 
	C789.238403,144.922104 805.816284,196.876160 822.368408,248.749573 
	C835.503174,248.749573 847.996399,248.609085 860.482666,248.840515 
	C863.947937,248.904770 865.299622,247.815231 866.320984,244.523239 
	C880.491882,198.846710 894.821228,153.219315 909.125000,107.584030 
	C910.683594,102.611557 912.323547,97.664574 913.925720,92.705765 
	C914.222534,92.767387 914.519409,92.829010 914.816223,92.890625 
	C917.889465,144.637207 920.962646,196.383804 924.037842,248.163849 
	C941.851135,248.163849 959.246704,248.163849 976.929688,248.163849 
	C971.141479,171.593765 965.385132,95.445717 959.609375,19.040873 
	C936.648254,19.040873 914.056335,19.040873 891.218750,19.040873 
	C875.576172,69.302238 859.948181,119.516922 843.951965,170.914642 
	C843.010315,168.376953 842.561462,167.303619 842.209595,166.199371 
	C827.132874,118.890396 812.002441,71.598320 797.102051,24.233852 
	C795.758179,19.961817 793.917908,18.695759 789.494995,18.799702 
	C775.170227,19.136353 760.832947,18.940514 745.500671,18.949797 
M562.901672,380.603912 
	C589.954834,422.396790 617.018921,464.182587 644.033691,506.000305 
	C645.633545,508.476868 647.079834,510.162872 650.582214,510.109253 
	C666.743286,509.861694 682.910339,510.006561 699.075134,509.978516 
	C700.003906,509.976898 700.932129,509.690002 701.757080,509.553070 
	C701.757080,432.982666 701.757080,356.717316 701.757080,280.247070 
	C684.275085,280.247070 667.036438,280.247070 649.700012,280.247070 
	C649.700012,331.158081 649.700012,381.822571 649.700012,433.360596 
	C648.180786,431.113220 647.068481,429.546967 646.036438,427.929504 
	C615.407349,379.926819 584.758911,331.936401 554.231812,283.868866 
	C552.410950,281.001740 550.540771,279.854919 547.115845,279.914856 
	C534.787659,280.130707 522.453369,279.999725 510.121399,279.999725 
	C504.849426,279.999725 499.577484,279.999695 494.320190,279.999695 
	C494.320190,356.980286 494.320190,433.361816 494.320190,509.650146 
	C511.903259,509.650146 529.137146,509.650146 546.291016,509.650146 
	C546.291016,458.166901 546.291016,407.033264 546.291016,354.998169 
	C552.026489,363.845062 557.263184,371.922607 562.901672,380.603912 
M61.973377,421.500000 
	C61.973377,450.907593 61.973377,480.315155 61.973377,509.782715 
	C63.279957,509.889526 63.927292,509.988678 64.574623,509.988708 
	C96.721626,509.989563 128.869965,510.152069 161.014999,509.897217 
	C175.223297,509.784576 189.202332,507.640686 202.439926,502.040253 
	C228.205154,491.139771 241.537872,469.319061 240.049759,440.536407 
	C238.828415,416.913971 223.136841,398.649475 197.184616,390.619293 
	C195.864365,390.210785 194.584122,389.672913 192.645462,388.959991 
	C193.918610,388.324890 194.473572,388.034973 195.039246,387.767761 
	C217.391876,377.209045 230.152649,352.111694 225.600693,327.726349 
	C221.343689,304.921051 206.728378,291.787018 185.463058,285.132294 
	C171.831848,280.866608 157.673798,280.069641 143.495178,280.023407 
	C118.010941,279.940369 92.526245,279.996033 67.041748,280.009308 
	C65.440208,280.010162 63.838741,280.145111 61.973366,280.229675 
	C61.973366,327.268433 61.973366,373.884216 61.973377,421.500000 
M304.000092,216.500000 
	C304.000092,195.584702 304.000092,174.669388 304.000092,153.592163 
	C335.006714,153.592163 365.402222,153.592163 396.371033,153.592163 
	C396.371033,185.698120 396.371033,217.459671 396.371033,249.451508 
	C414.516602,249.451508 432.086975,249.451508 449.778107,249.451508 
	C449.778107,172.789581 449.778107,96.425629 449.778107,20.197594 
	C431.640045,20.197594 413.918640,20.197594 395.860840,20.197594 
	C395.860840,49.848038 395.860840,79.110191 395.860840,108.645683 
	C365.121307,108.645683 334.724335,108.645683 303.647247,108.645683 
	C303.647247,79.044136 303.647247,49.644718 303.647247,20.223030 
	C285.366943,20.223030 267.767822,20.223030 250.134308,20.223030 
	C250.134308,96.874229 250.134308,173.252197 250.134308,249.702087 
	C268.233246,249.702087 285.959015,249.702087 304.000092,249.702087 
	C304.000092,238.771179 304.000092,228.135590 304.000092,216.500000 
M447.808258,437.715088 
	C442.172028,422.782623 436.529663,407.852509 430.900757,392.917267 
	C417.238647,356.667358 403.610504,320.404541 389.835236,284.197693 
	C389.206635,282.545502 387.293091,280.201477 385.947784,280.181152 
	C368.138275,279.911865 350.323334,280.001587 332.334320,280.001587 
	C303.454987,356.652008 274.655396,433.090851 245.733170,509.855103 
	C264.798920,509.855103 283.103821,509.855103 301.702057,509.855103 
	C306.623932,495.891388 311.613586,481.990112 316.380951,468.013000 
	C317.440338,464.907074 318.780304,463.607941 322.333221,463.635101 
	C346.823608,463.822021 371.316467,463.793427 395.807556,463.660370 
	C399.005981,463.642975 400.461700,464.628235 401.490204,467.678497 
	C405.845581,480.595795 410.550812,493.394897 414.948456,506.298431 
	C415.889496,509.059601 417.147766,510.109650 420.191010,510.079407 
	C436.850464,509.913818 453.512421,510.005646 470.173523,509.991150 
	C471.592010,509.989929 473.010345,509.857666 474.898010,509.762634 
	C465.836914,485.708435 456.937317,462.082886 447.808258,437.715088 
M793.715027,464.794281 
	C795.085632,464.440674 796.455505,463.782196 797.826965,463.778778 
	C822.649719,463.716705 847.472839,463.775055 872.295349,463.675720 
	C875.078979,463.664581 876.363342,464.487976 877.285950,467.208252 
	C881.717041,480.274261 886.477783,493.228271 890.945435,506.282288 
	C891.884949,509.027344 893.108032,510.160858 896.175293,510.082397 
	C905.165649,509.852417 914.165710,510.000488 923.161926,510.000488 
	C932.245056,510.000488 941.328186,510.000488 950.807617,510.000488 
	C950.336792,508.476746 950.096680,507.524261 949.752563,506.610992 
	C921.737732,432.247223 893.695435,357.893799 865.764648,283.498505 
	C864.667053,280.574982 863.126099,279.919739 860.271240,279.941315 
	C844.278870,280.062195 828.283752,280.107513 812.292908,279.911285 
	C808.971558,279.870544 807.846741,281.170776 806.768127,284.042450 
	C779.059204,357.810577 751.243469,431.538544 723.453674,505.276306 
	C722.916260,506.702179 722.467529,508.161438 721.901306,509.829498 
	C740.944641,509.829498 759.246887,509.829498 777.726257,509.829498 
	C782.941101,495.002106 788.122253,480.270386 793.715027,464.794281 
M634.944458,230.563904 
	C636.650452,235.419067 638.528137,240.222992 639.997986,245.148651 
	C640.876099,248.091522 642.472168,248.840225 645.393250,248.812195 
	C662.052185,248.652328 678.713196,248.698685 695.373291,248.639816 
	C696.629211,248.635391 697.884277,248.357239 699.503662,248.162582 
	C698.933350,246.358765 698.562195,244.950928 698.049438,243.596710 
	C670.184814,170.000870 642.286316,96.417831 614.511780,22.788008 
	C613.375732,19.776478 611.999207,18.777510 608.815247,18.814083 
	C593.322754,18.992041 577.824280,19.083031 562.334961,18.809471 
	C558.114746,18.734938 556.383728,20.124693 554.934204,24.012058 
	C530.747864,88.876404 506.383057,153.674210 482.074738,218.493118 
	C478.316284,228.515213 474.640198,238.568207 470.842010,248.833969 
	C489.765015,248.833969 508.068054,248.833969 526.614258,248.833969 
	C531.662720,234.548904 536.752991,220.356659 541.647949,206.097351 
	C542.517700,203.563675 543.455200,202.305237 546.426697,202.314301 
	C571.416809,202.390518 596.407837,202.348099 621.397400,202.172379 
	C624.364197,202.151520 625.351074,203.369339 626.202393,205.893066 
	C628.907288,213.911926 631.867371,221.844742 634.944458,230.563904 
M225.247452,220.892761 
	C219.522888,207.549362 213.798325,194.205963 207.910568,180.482162 
	C192.384766,195.502991 174.205978,202.420532 153.679520,204.611786 
	C122.190323,207.973358 92.996788,191.703583 82.116989,163.473633 
	C74.720818,144.282700 74.765831,124.682426 81.701683,105.362984 
	C88.597252,86.155724 102.069977,73.361862 121.478683,66.933136 
	C140.496628,60.633835 159.353729,61.840424 177.495285,69.693817 
	C187.232529,73.909027 196.201385,79.899178 205.775238,85.232254 
	C205.264969,85.679382 205.449219,85.596222 205.499695,85.462555 
	C208.958389,76.303398 212.441818,67.153351 215.847656,57.974522 
	C222.542542,39.931606 222.728897,39.512238 205.252243,30.855122 
	C168.859558,12.827890 131.269791,11.652275 93.481651,25.625320 
	C64.279129,36.423634 43.405716,56.730156 31.496914,85.638634 
	C22.076937,108.505531 20.080669,132.367828 23.898245,156.700073 
	C29.837507,194.555389 49.198627,223.054825 83.671906,240.474701 
	C108.187950,252.863022 134.422974,255.759262 161.412109,252.641861 
	C181.418945,250.330963 199.957855,243.861710 215.910995,231.195816 
	C219.446854,228.388550 222.345703,224.778931 225.247452,220.892761 
M474.811829,581.591736 
	C478.414703,595.377441 489.253113,602.851013 502.997925,599.234070 
	C519.854065,594.798340 536.343262,594.966431 553.241516,598.516846 
	C570.624817,602.169250 588.243469,602.808594 605.829834,599.556885 
	C621.734802,596.616028 636.904846,599.410767 651.812561,604.936584 
	C654.866272,606.068420 656.224609,607.615601 656.108093,611.105896 
	C655.825928,619.556152 656.016357,628.022217 656.016357,636.615295 
	C657.578491,636.840149 658.533569,637.035461 659.497742,637.107849 
	C678.248474,638.516846 696.980469,640.321289 715.755737,641.228027 
	C761.909119,643.456787 807.993225,642.413879 853.515076,633.839783 
	C887.552246,627.428833 920.931213,618.318298 952.235840,602.968323 
	C960.141357,599.091919 967.694153,594.496155 976.767822,589.479797 
	C968.214478,584.746338 961.484802,580.368713 954.245728,577.129517 
	C923.607910,563.420105 890.889282,559.216248 857.852783,558.434937 
	C804.279358,557.167908 750.675964,557.216858 697.087646,556.522705 
	C654.319946,555.968689 611.557129,555.046814 568.789734,554.461731 
	C546.156616,554.152100 523.517212,554.024597 500.882965,554.169128 
	C484.729980,554.272278 472.642365,566.828918 474.811829,581.591736 
M176.499878,852.515076 
	C193.930145,852.515076 211.360428,852.515076 228.854706,852.515076 
	C228.854706,833.201599 228.854706,814.595581 228.854706,795.423218 
	C189.213120,795.423218 149.814789,795.423218 110.242706,795.423218 
	C110.242706,774.443481 110.242706,754.032227 110.242706,733.092651 
	C152.238876,733.092651 193.968369,733.092651 235.722137,733.092651 
	C235.722137,713.866028 235.722137,695.171570 235.722137,676.590881 
	C169.921951,676.590881 104.540062,676.590881 39.234741,676.590881 
	C39.234741,778.242004 39.234741,879.483276 39.234741,980.725830 
	C106.312096,980.725830 173.051422,980.725830 239.713165,980.725830 
	C239.713165,961.372314 239.713165,942.335205 239.713165,922.953369 
	C196.349823,922.953369 153.411697,922.953369 110.275558,922.953369 
	C110.275558,899.368591 110.275558,876.136719 110.275558,852.514404 
	C132.217834,852.514404 153.858841,852.514404 176.499878,852.515076 
M848.291748,736.688843 
	C863.121521,727.731445 879.009338,727.718689 895.147583,731.614502 
	C914.503601,736.287109 931.051880,746.241089 945.798584,760.103943 
	C955.981323,743.438538 966.027832,726.995972 976.454590,709.931274 
	C975.129089,708.869080 973.796753,707.884399 972.556702,706.794617 
	C962.060486,697.570679 950.105896,690.685669 937.288452,685.347900 
	C895.541748,667.962708 853.834045,667.435974 813.225098,688.200989 
	C771.027649,709.778198 754.721191,761.025696 775.838440,802.427124 
	C785.760010,821.878845 802.473999,833.655396 821.894226,841.906311 
	C835.660217,847.755066 849.908020,852.460388 863.766296,858.104492 
	C874.822693,862.607605 886.414551,866.511353 896.356262,872.884521 
	C915.880554,885.400574 913.442688,911.491638 892.548096,921.707031 
	C884.122009,925.826538 875.078796,927.099365 865.805237,926.486694 
	C847.929504,925.305786 831.716431,918.852173 816.764954,909.495056 
	C807.110352,903.452759 798.248901,896.142944 788.740967,889.188293 
	C777.415466,905.898438 765.775452,923.072571 754.177063,940.185364 
	C793.257812,976.428772 843.712402,994.797058 896.978455,982.485413 
	C922.266113,976.640503 944.644409,965.615234 961.405518,945.102295 
	C987.380127,913.313599 987.182129,863.363159 960.961426,833.995117 
	C949.731689,821.417480 935.527039,813.140625 920.035339,807.018127 
	C905.188110,801.150269 890.090027,795.907532 875.319885,789.858521 
	C866.133850,786.096436 856.598022,782.425537 848.555115,776.802795 
	C834.198181,766.765808 834.310120,748.468811 848.291748,736.688843 
M426.408020,548.118774 
	C405.063477,535.942871 382.527313,529.728577 357.638977,532.725952 
	C331.949371,535.819702 310.266296,545.325928 295.464264,567.604126 
	C294.481842,569.082764 292.084534,570.389404 290.303314,570.445679 
	C277.988892,570.834717 265.663452,570.901794 253.340958,570.968445 
	C252.183670,570.974731 250.433029,570.614136 249.961975,569.824768 
	C247.513855,565.721985 243.707901,565.342529 239.566757,565.341797 
	C181.615814,565.331848 123.664841,565.324158 65.713959,565.249817 
	C46.203316,565.224792 35.819168,575.803894 37.060162,595.110168 
	C37.975391,609.348572 46.834496,620.445496 63.367451,620.133545 
	C96.501007,619.508484 129.655075,619.967773 162.800674,619.984680 
	C188.452240,619.997742 214.103912,619.988525 239.755295,620.064819 
	C244.270111,620.078247 247.858734,619.034912 249.933685,614.482666 
	C250.384689,613.493225 252.519424,612.780273 253.882050,612.774780 
	C265.205688,612.728821 276.535370,613.109741 287.851654,612.852539 
	C292.201721,612.753662 294.855133,613.988953 297.016083,617.785706 
	C298.799683,620.919617 301.406006,623.623108 303.844971,626.340332 
	C328.439575,653.741089 378.344482,656.745728 406.130676,644.904358 
	C418.204895,639.758850 429.899811,633.715149 441.688751,627.920227 
	C442.913269,627.318298 444.232971,625.718140 444.414032,624.427490 
	C444.821503,621.523071 444.541840,618.522217 444.541840,615.377991 
	C439.175354,614.519531 434.320374,613.742981 429.465424,612.966370 
	C433.180206,611.074097 436.798828,609.794067 440.527161,609.132202 
	C443.932556,608.527588 444.840668,606.791382 444.569489,603.623352 
	C444.301300,600.489990 445.650665,596.967102 440.645538,596.006287 
	C435.728973,595.062439 430.954132,593.380188 424.831573,591.661011 
	C431.206055,589.825378 436.087219,588.070312 441.118561,587.073059 
	C445.785492,586.147949 444.272736,582.832336 444.514191,580.127991 
	C444.763977,577.330566 444.648804,574.959900 440.892944,574.291443 
	C436.946533,573.588989 433.125122,572.184143 429.249084,571.086243 
	C429.328522,570.809265 429.407959,570.532227 429.487427,570.255249 
	C434.378784,569.521301 439.270142,568.787354 444.493622,568.003540 
	C444.493622,565.997620 444.294556,564.323914 444.531830,562.714478 
	C445.180054,558.317566 443.759003,555.625305 439.282959,554.109009 
	C435.062683,552.679382 431.137878,550.377563 426.408020,548.118774 
M379.499969,919.682495 
	C404.832947,919.682556 430.166168,919.733398 455.498596,919.618103 
	C458.643036,919.603821 460.120239,920.487061 461.187683,923.607605 
	C467.270264,941.388977 473.713257,959.046997 479.816162,976.821655 
	C480.896851,979.969116 482.194580,981.164978 485.698944,981.136353 
	C508.697021,980.948303 531.697327,981.042969 554.696960,981.031006 
	C555.986206,981.030334 557.275391,980.904236 558.864258,980.820801 
	C558.374878,979.302856 558.025574,978.039307 557.565308,976.817505 
	C520.333862,877.979675 483.080322,779.150085 445.915161,680.287292 
	C444.731171,677.137756 443.184906,676.063660 439.767242,676.091553 
	C418.269043,676.267395 396.767365,676.303528 375.270264,676.070740 
	C371.254944,676.027222 369.533417,677.248474 368.133911,680.975220 
	C331.236053,779.227722 294.206665,877.430908 257.213715,975.647705 
	C256.607697,977.256592 256.174561,978.930603 255.515274,981.039612 
	C279.101349,981.039612 301.922729,980.953125 324.742096,981.129211 
	C328.326782,981.156799 329.928680,980.095154 331.095093,976.682007 
	C337.172546,958.898132 343.595917,941.232544 349.707489,923.460022 
	C350.686646,920.612671 351.963959,919.535217 355.002136,919.614746 
	C362.829956,919.819580 370.666748,919.682617 379.499969,919.682495 
M673.973206,976.348267 
	C673.973206,895.280640 673.973206,814.212952 673.973206,732.789185 
	C700.441589,732.789185 726.214172,732.789185 752.292603,732.789185 
	C752.292603,713.866455 752.292603,695.301086 752.292603,676.457336 
	C676.176941,676.457336 600.301453,676.457336 524.142456,676.457336 
	C524.142456,695.248718 524.142456,713.802917 524.142456,732.986877 
	C550.277893,732.986877 576.155762,732.986877 602.546997,732.986877 
	C602.546997,815.997742 602.546997,898.380249 602.546997,981.036987 
	C625.719055,981.036987 648.367798,980.987793 671.015808,981.094543 
	C674.114136,981.109131 674.109314,979.442139 673.973206,976.348267 
z"/>
<path fill="#FF5801" opacity="1.000000" stroke="none" 
	d="
M746.000610,18.949793 
	C760.832947,18.940514 775.170227,19.136353 789.494995,18.799702 
	C793.917908,18.695759 795.758179,19.961817 797.102051,24.233852 
	C812.002441,71.598320 827.132874,118.890396 842.209595,166.199371 
	C842.561462,167.303619 843.010315,168.376953 843.951965,170.914642 
	C859.948181,119.516922 875.576172,69.302238 891.218750,19.040873 
	C914.056335,19.040873 936.648254,19.040873 959.609375,19.040873 
	C965.385132,95.445717 971.141479,171.593765 976.929688,248.163849 
	C959.246704,248.163849 941.851135,248.163849 924.037842,248.163849 
	C920.962646,196.383804 917.889465,144.637207 914.816223,92.890625 
	C914.519409,92.829010 914.222534,92.767387 913.925720,92.705765 
	C912.323547,97.664574 910.683594,102.611557 909.125000,107.584030 
	C894.821228,153.219315 880.491882,198.846710 866.320984,244.523239 
	C865.299622,247.815231 863.947937,248.904770 860.482666,248.840515 
	C847.996399,248.609085 835.503174,248.749573 822.368408,248.749573 
	C805.816284,196.876160 789.238403,144.922104 772.660583,92.968033 
	C772.222778,92.987617 771.784973,93.007202 771.347229,93.026794 
	C768.661987,144.844009 765.976746,196.661240 763.278442,248.729736 
	C745.560669,248.729736 728.158875,248.729736 710.401367,248.729736 
	C716.044128,172.117233 721.666138,95.787140 727.325439,18.949797 
	C733.590820,18.949797 739.545776,18.949797 746.000610,18.949793 
z"/>
<path fill="#676767" opacity="1.000000" stroke="none" 
	d="
M562.700806,380.302002 
	C557.263184,371.922607 552.026489,363.845062 546.291016,354.998169 
	C546.291016,407.033264 546.291016,458.166901 546.291016,509.650146 
	C529.137146,509.650146 511.903259,509.650146 494.320190,509.650146 
	C494.320190,433.361816 494.320190,356.980286 494.320190,279.999695 
	C499.577484,279.999695 504.849426,279.999725 510.121399,279.999725 
	C522.453369,279.999725 534.787659,280.130707 547.115845,279.914856 
	C550.540771,279.854919 552.410950,281.001740 554.231812,283.868866 
	C584.758911,331.936401 615.407349,379.926819 646.036438,427.929504 
	C647.068481,429.546967 648.180786,431.113220 649.700012,433.360596 
	C649.700012,381.822571 649.700012,331.158081 649.700012,280.247070 
	C667.036438,280.247070 684.275085,280.247070 701.757080,280.247070 
	C701.757080,356.717316 701.757080,432.982666 701.757080,509.553070 
	C700.932129,509.690002 700.003906,509.976898 699.075134,509.978516 
	C682.910339,510.006561 666.743286,509.861694 650.582214,510.109253 
	C647.079834,510.162872 645.633545,508.476868 644.033691,506.000305 
	C617.018921,464.182587 589.954834,422.396790 562.700806,380.302002 
z"/>
<path fill="#676767" opacity="1.000000" stroke="none" 
	d="
M61.973373,421.000000 
	C61.973366,373.884216 61.973366,327.268433 61.973366,280.229675 
	C63.838741,280.145111 65.440208,280.010162 67.041748,280.009308 
	C92.526245,279.996033 118.010941,279.940369 143.495178,280.023407 
	C157.673798,280.069641 171.831848,280.866608 185.463058,285.132294 
	C206.728378,291.787018 221.343689,304.921051 225.600693,327.726349 
	C230.152649,352.111694 217.391876,377.209045 195.039246,387.767761 
	C194.473572,388.034973 193.918610,388.324890 192.645462,388.959991 
	C194.584122,389.672913 195.864365,390.210785 197.184616,390.619293 
	C223.136841,398.649475 238.828415,416.913971 240.049759,440.536407 
	C241.537872,469.319061 228.205154,491.139771 202.439926,502.040253 
	C189.202332,507.640686 175.223297,509.784576 161.014999,509.897217 
	C128.869965,510.152069 96.721626,509.989563 64.574623,509.988708 
	C63.927292,509.988678 63.279957,509.889526 61.973377,509.782715 
	C61.973377,480.315155 61.973377,450.907593 61.973373,421.000000 
M125.530159,469.001617 
	C137.328949,468.655182 149.217621,469.097046 160.903992,467.764587 
	C175.823212,466.063507 185.352112,454.814423 185.759903,440.458374 
	C186.168762,426.063904 177.873444,414.363983 162.885681,412.203552 
	C147.549591,409.992889 131.853561,410.279327 115.997452,409.456238 
	C115.997452,430.019165 115.997452,449.246033 115.997452,469.001617 
	C118.968613,469.001617 121.753922,469.001617 125.530159,469.001617 
M115.731445,332.509552 
	C115.731445,345.903320 115.731445,359.297119 115.731445,371.975983 
	C128.225006,371.975983 140.078323,372.894836 151.723343,371.730377 
	C164.650131,370.437775 172.741364,360.309357 173.195862,347.571594 
	C173.683640,333.901398 167.126968,323.572021 154.242813,321.586273 
	C141.737396,319.658936 128.868805,320.088043 115.731255,319.461884 
	C115.731255,324.252441 115.731255,327.883728 115.731445,332.509552 
z"/>
<path fill="#FF5801" opacity="1.000000" stroke="none" 
	d="
M304.000092,217.000000 
	C304.000092,228.135590 304.000092,238.771179 304.000092,249.702087 
	C285.959015,249.702087 268.233246,249.702087 250.134308,249.702087 
	C250.134308,173.252197 250.134308,96.874229 250.134308,20.223030 
	C267.767822,20.223030 285.366943,20.223030 303.647247,20.223030 
	C303.647247,49.644718 303.647247,79.044136 303.647247,108.645683 
	C334.724335,108.645683 365.121307,108.645683 395.860840,108.645683 
	C395.860840,79.110191 395.860840,49.848038 395.860840,20.197594 
	C413.918640,20.197594 431.640045,20.197594 449.778107,20.197594 
	C449.778107,96.425629 449.778107,172.789581 449.778107,249.451508 
	C432.086975,249.451508 414.516602,249.451508 396.371033,249.451508 
	C396.371033,217.459671 396.371033,185.698120 396.371033,153.592163 
	C365.402222,153.592163 335.006714,153.592163 304.000092,153.592163 
	C304.000092,174.669388 304.000092,195.584702 304.000092,217.000000 
z"/>
<path fill="#676767" opacity="1.000000" stroke="none" 
	d="
M447.922974,438.086212 
	C456.937317,462.082886 465.836914,485.708435 474.898010,509.762634 
	C473.010345,509.857666 471.592010,509.989929 470.173523,509.991150 
	C453.512421,510.005646 436.850464,509.913818 420.191010,510.079407 
	C417.147766,510.109650 415.889496,509.059601 414.948456,506.298431 
	C410.550812,493.394897 405.845581,480.595795 401.490204,467.678497 
	C400.461700,464.628235 399.005981,463.642975 395.807556,463.660370 
	C371.316467,463.793427 346.823608,463.822021 322.333221,463.635101 
	C318.780304,463.607941 317.440338,464.907074 316.380951,468.013000 
	C311.613586,481.990112 306.623932,495.891388 301.702057,509.855103 
	C283.103821,509.855103 264.798920,509.855103 245.733170,509.855103 
	C274.655396,433.090851 303.454987,356.652008 332.334320,280.001587 
	C350.323334,280.001587 368.138275,279.911865 385.947784,280.181152 
	C387.293091,280.201477 389.206635,282.545502 389.835236,284.197693 
	C403.610504,320.404541 417.238647,356.667358 430.900757,392.917267 
	C436.529663,407.852509 442.172028,422.782623 447.922974,438.086212 
M362.783203,349.727142 
	C361.642914,346.588043 360.502625,343.448944 358.928528,339.115601 
	C349.138947,367.389252 339.832947,394.266296 330.423553,421.441986 
	C349.812469,421.441986 368.329590,421.441986 387.600555,421.441986 
	C379.268494,397.429047 371.124939,373.959351 362.783203,349.727142 
z"/>
<path fill="#676767" opacity="1.000000" stroke="none" 
	d="
M793.509277,465.166504 
	C788.122253,480.270386 782.941101,495.002106 777.726257,509.829498 
	C759.246887,509.829498 740.944641,509.829498 721.901306,509.829498 
	C722.467529,508.161438 722.916260,506.702179 723.453674,505.276306 
	C751.243469,431.538544 779.059204,357.810577 806.768127,284.042450 
	C807.846741,281.170776 808.971558,279.870544 812.292908,279.911285 
	C828.283752,280.107513 844.278870,280.062195 860.271240,279.941315 
	C863.126099,279.919739 864.667053,280.574982 865.764648,283.498505 
	C893.695435,357.893799 921.737732,432.247223 949.752563,506.610992 
	C950.096680,507.524261 950.336792,508.476746 950.807617,510.000488 
	C941.328186,510.000488 932.245056,510.000488 923.161926,510.000488 
	C914.165710,510.000488 905.165649,509.852417 896.175293,510.082397 
	C893.108032,510.160858 891.884949,509.027344 890.945435,506.282288 
	C886.477783,493.228271 881.717041,480.274261 877.285950,467.208252 
	C876.363342,464.487976 875.078979,463.664581 872.295349,463.675720 
	C847.472839,463.775055 822.649719,463.716705 797.826965,463.778778 
	C796.455505,463.782196 795.085632,464.440674 793.509277,465.166504 
M846.768250,372.739929 
	C842.976501,361.931824 839.184692,351.123718 834.949463,339.051636 
	C825.134216,367.402832 815.828613,394.281708 806.431580,421.424805 
	C825.833923,421.424805 844.348450,421.424805 863.582581,421.424805 
	C857.919739,405.086426 852.446472,389.294922 846.768250,372.739929 
z"/>
<path fill="#FF5801" opacity="1.000000" stroke="none" 
	d="
M634.836670,230.187347 
	C631.867371,221.844742 628.907288,213.911926 626.202393,205.893066 
	C625.351074,203.369339 624.364197,202.151520 621.397400,202.172379 
	C596.407837,202.348099 571.416809,202.390518 546.426697,202.314301 
	C543.455200,202.305237 542.517700,203.563675 541.647949,206.097351 
	C536.752991,220.356659 531.662720,234.548904 526.614258,248.833969 
	C508.068054,248.833969 489.765015,248.833969 470.842010,248.833969 
	C474.640198,238.568207 478.316284,228.515213 482.074738,218.493118 
	C506.383057,153.674210 530.747864,88.876404 554.934204,24.012058 
	C556.383728,20.124693 558.114746,18.734938 562.334961,18.809471 
	C577.824280,19.083031 593.322754,18.992041 608.815247,18.814083 
	C611.999207,18.777510 613.375732,19.776478 614.511780,22.788008 
	C642.286316,96.417831 670.184814,170.000870 698.049438,243.596710 
	C698.562195,244.950928 698.933350,246.358765 699.503662,248.162582 
	C697.884277,248.357239 696.629211,248.635391 695.373291,248.639816 
	C678.713196,248.698685 662.052185,248.652328 645.393250,248.812195 
	C642.472168,248.840225 640.876099,248.091522 639.997986,245.148651 
	C638.528137,240.222992 636.650452,235.419067 634.836670,230.187347 
M607.207642,145.190079 
	C599.496704,123.038132 591.785767,100.886192 583.706726,77.676750 
	C573.946838,106.013054 564.622070,133.085907 555.300415,160.149841 
	C574.629761,160.149841 593.306274,160.149841 612.403198,160.149841 
	C610.637939,154.982712 609.087280,150.443756 607.207642,145.190079 
z"/>
<path fill="#FF5801" opacity="1.000000" stroke="none" 
	d="
M225.392654,221.215759 
	C222.345703,224.778931 219.446854,228.388550 215.910995,231.195816 
	C199.957855,243.861710 181.418945,250.330963 161.412109,252.641861 
	C134.422974,255.759262 108.187950,252.863022 83.671906,240.474701 
	C49.198627,223.054825 29.837507,194.555389 23.898245,156.700073 
	C20.080669,132.367828 22.076937,108.505531 31.496914,85.638634 
	C43.405716,56.730156 64.279129,36.423634 93.481651,25.625320 
	C131.269791,11.652275 168.859558,12.827890 205.252243,30.855122 
	C222.728897,39.512238 222.542542,39.931606 215.847656,57.974522 
	C212.441818,67.153351 208.958389,76.303398 205.499695,85.462555 
	C205.449219,85.596222 205.264969,85.679382 205.775238,85.232254 
	C196.201385,79.899178 187.232529,73.909027 177.495285,69.693817 
	C159.353729,61.840424 140.496628,60.633835 121.478683,66.933136 
	C102.069977,73.361862 88.597252,86.155724 81.701683,105.362984 
	C74.765831,124.682426 74.720818,144.282700 82.116989,163.473633 
	C92.996788,191.703583 122.190323,207.973358 153.679520,204.611786 
	C174.205978,202.420532 192.384766,195.502991 207.910568,180.482162 
	C213.798325,194.205963 219.522888,207.549362 225.392654,221.215759 
z"/>
<path fill="#686868" opacity="1.000000" stroke="none" 
	d="
M474.727661,581.189758 
	C472.642365,566.828918 484.729980,554.272278 500.882965,554.169128 
	C523.517212,554.024597 546.156616,554.152100 568.789734,554.461731 
	C611.557129,555.046814 654.319946,555.968689 697.087646,556.522705 
	C750.675964,557.216858 804.279358,557.167908 857.852783,558.434937 
	C890.889282,559.216248 923.607910,563.420105 954.245728,577.129517 
	C961.484802,580.368713 968.214478,584.746338 976.767822,589.479797 
	C967.694153,594.496155 960.141357,599.091919 952.235840,602.968323 
	C920.931213,618.318298 887.552246,627.428833 853.515076,633.839783 
	C807.993225,642.413879 761.909119,643.456787 715.755737,641.228027 
	C696.980469,640.321289 678.248474,638.516846 659.497742,637.107849 
	C658.533569,637.035461 657.578491,636.840149 656.016357,636.615295 
	C656.016357,628.022217 655.825928,619.556152 656.108093,611.105896 
	C656.224609,607.615601 654.866272,606.068420 651.812561,604.936584 
	C636.904846,599.410767 621.734802,596.616028 605.829834,599.556885 
	C588.243469,602.808594 570.624817,602.169250 553.241516,598.516846 
	C536.343262,594.966431 519.854065,594.798340 502.997925,599.234070 
	C489.253113,602.851013 478.414703,595.377441 474.727661,581.189758 
M912.509399,571.960144 
	C894.180969,569.893494 875.886169,566.473755 857.517639,566.016479 
	C804.626648,564.699524 751.705994,564.555481 698.796448,564.005859 
	C687.030273,563.883606 675.261719,563.987976 663.739990,563.987976 
	C663.739990,586.077148 663.739990,607.954529 663.739990,629.750305 
	C665.101807,630.015747 665.744080,630.201538 666.397766,630.259583 
	C700.884827,633.321533 735.360107,635.408569 770.065369,634.519592 
	C819.815979,633.245239 868.426880,626.196350 915.563599,609.976379 
	C931.427673,604.517456 946.984802,598.316223 961.887695,589.411194 
	C946.519592,580.380554 930.153748,575.609192 912.509399,571.960144 
z"/>
<path fill="#6A6A6A" opacity="1.000000" stroke="none" 
	d="
M175.999863,852.514771 
	C153.858841,852.514404 132.217834,852.514404 110.275558,852.514404 
	C110.275558,876.136719 110.275558,899.368591 110.275558,922.953369 
	C153.411697,922.953369 196.349823,922.953369 239.713165,922.953369 
	C239.713165,942.335205 239.713165,961.372314 239.713165,980.725830 
	C173.051422,980.725830 106.312096,980.725830 39.234741,980.725830 
	C39.234741,879.483276 39.234741,778.242004 39.234741,676.590881 
	C104.540062,676.590881 169.921951,676.590881 235.722137,676.590881 
	C235.722137,695.171570 235.722137,713.866028 235.722137,733.092651 
	C193.968369,733.092651 152.238876,733.092651 110.242706,733.092651 
	C110.242706,754.032227 110.242706,774.443481 110.242706,795.423218 
	C149.814789,795.423218 189.213120,795.423218 228.854706,795.423218 
	C228.854706,814.595581 228.854706,833.201599 228.854706,852.515076 
	C211.360428,852.515076 193.930145,852.515076 175.999863,852.514771 
M105.908112,929.953552 
	C102.108154,927.784363 101.940758,924.137634 101.944099,920.372620 
	C101.962585,899.540283 101.952194,878.708008 101.953171,857.875671 
	C101.953697,846.637878 104.171051,844.393921 115.322289,844.392334 
	C148.487335,844.387817 181.652374,844.390808 214.817413,844.390808 
	C216.755020,844.390808 218.692627,844.390808 220.788208,844.390808 
	C220.788208,830.530090 220.788208,817.289734 220.788208,803.609192 
	C218.690781,803.609192 216.892975,803.609192 215.095154,803.609192 
	C181.430130,803.609192 147.765106,803.625122 114.100113,803.598999 
	C104.567245,803.591553 101.958801,800.923401 101.955009,791.401978 
	C101.947914,773.569519 101.950424,755.737061 101.953957,737.904602 
	C101.955956,727.833252 104.616257,725.141968 114.604897,725.140503 
	C150.436478,725.135193 186.268051,725.138367 222.099640,725.138367 
	C224.020889,725.138367 225.942139,725.138367 227.836975,725.138367 
	C227.836975,711.136292 227.836975,697.883484 227.836975,684.469849 
	C167.467987,684.469849 107.400711,684.469849 47.144596,684.469849 
	C47.144596,780.683228 47.144596,876.597107 47.144596,972.620850 
	C108.906021,972.620850 170.430771,972.620850 231.805267,972.620850 
	C231.805267,958.633179 231.805267,945.043701 231.805267,931.082153 
	C229.673233,931.082153 227.870255,931.082214 226.067291,931.082214 
	C188.735779,931.082214 151.404266,931.097412 114.072823,931.047668 
	C111.607056,931.044434 109.141945,930.546326 105.908112,929.953552 
z"/>
<path fill="#6B6B6B" opacity="1.000000" stroke="none" 
	d="
M847.989990,736.891479 
	C834.310120,748.468811 834.198181,766.765808 848.555115,776.802795 
	C856.598022,782.425537 866.133850,786.096436 875.319885,789.858521 
	C890.090027,795.907532 905.188110,801.150269 920.035339,807.018127 
	C935.527039,813.140625 949.731689,821.417480 960.961426,833.995117 
	C987.182129,863.363159 987.380127,913.313599 961.405518,945.102295 
	C944.644409,965.615234 922.266113,976.640503 896.978455,982.485413 
	C843.712402,994.797058 793.257812,976.428772 754.177063,940.185364 
	C765.775452,923.072571 777.415466,905.898438 788.740967,889.188293 
	C798.248901,896.142944 807.110352,903.452759 816.764954,909.495056 
	C831.716431,918.852173 847.929504,925.305786 865.805237,926.486694 
	C875.078796,927.099365 884.122009,925.826538 892.548096,921.707031 
	C913.442688,911.491638 915.880554,885.400574 896.356262,872.884521 
	C886.414551,866.511353 874.822693,862.607605 863.766296,858.104492 
	C849.908020,852.460388 835.660217,847.755066 821.894226,841.906311 
	C802.473999,833.655396 785.760010,821.878845 775.838440,802.427124 
	C754.721191,761.025696 771.027649,709.778198 813.225098,688.200989 
	C853.834045,667.435974 895.541748,667.962708 937.288452,685.347900 
	C950.105896,690.685669 962.060486,697.570679 972.556702,706.794617 
	C973.796753,707.884399 975.129089,708.869080 976.454590,709.931274 
	C966.027832,726.995972 955.981323,743.438538 945.798584,760.103943 
	C931.051880,746.241089 914.503601,736.287109 895.147583,731.614502 
	C879.009338,727.718689 863.121521,727.731445 847.989990,736.891479 
M809.194702,914.319336 
	C802.975830,909.884827 796.756958,905.450317 790.368408,900.894836 
	C781.819946,913.533691 773.277222,926.164124 764.511597,939.124084 
	C768.674316,942.358276 772.373962,945.436951 776.276123,948.233032 
	C817.884216,978.047546 863.024902,987.061279 911.911011,969.773621 
	C947.019897,957.357971 972.227234,930.181885 972.637817,889.893188 
	C972.820129,872.006897 968.748901,855.645691 957.013611,841.620239 
	C945.998718,828.455688 931.741516,820.132996 916.087036,813.973206 
	C897.821838,806.786255 879.401672,799.993958 861.100952,792.895996 
	C852.668396,789.625427 844.709900,785.485352 838.483948,778.648560 
	C824.688721,763.499756 828.087708,739.465393 845.665039,729.018433 
	C856.940247,722.317078 869.452209,720.457397 882.254333,721.474243 
	C898.598206,722.772339 913.781799,728.151184 927.801208,736.630066 
	C933.296814,739.953796 938.542419,743.690735 944.226990,747.454712 
	C951.498840,735.537292 958.660095,723.801270 965.813904,712.077393 
	C965.117737,711.255310 964.750305,710.699768 964.266724,710.277039 
	C963.390991,709.511597 962.480408,708.775940 961.525330,708.112915 
	C922.558655,681.064819 880.226685,673.420105 834.788025,687.533630 
	C801.624390,697.834534 776.001770,722.261108 775.307617,761.412598 
	C775.001648,778.668823 778.242126,794.886292 789.276428,808.778137 
	C799.968445,822.239014 814.248047,830.629211 829.928406,836.781616 
	C846.805603,843.403687 863.960999,849.326172 880.759827,856.134338 
	C888.559204,859.295227 896.365784,863.038147 903.186829,867.896423 
	C920.751038,880.406433 922.477783,905.726196 907.149841,920.842590 
	C895.244141,932.584106 880.146301,935.549622 864.240906,934.318665 
	C844.411743,932.783936 826.583740,925.041565 809.194702,914.319336 
z"/>
<path fill="#6A6A6A" opacity="1.000000" stroke="none" 
	d="
M426.745544,548.289062 
	C431.137878,550.377563 435.062683,552.679382 439.282959,554.109009 
	C443.759003,555.625305 445.180054,558.317566 444.531830,562.714478 
	C444.294556,564.323914 444.493622,565.997620 444.493622,568.003540 
	C439.270142,568.787354 434.378784,569.521301 429.487427,570.255249 
	C429.407959,570.532227 429.328522,570.809265 429.249084,571.086243 
	C433.125122,572.184143 436.946533,573.588989 440.892944,574.291443 
	C444.648804,574.959900 444.763977,577.330566 444.514191,580.127991 
	C444.272736,582.832336 445.785492,586.147949 441.118561,587.073059 
	C436.087219,588.070312 431.206055,589.825378 424.831573,591.661011 
	C430.954132,593.380188 435.728973,595.062439 440.645538,596.006287 
	C445.650665,596.967102 444.301300,600.489990 444.569489,603.623352 
	C444.840668,606.791382 443.932556,608.527588 440.527161,609.132202 
	C436.798828,609.794067 433.180206,611.074097 429.465424,612.966370 
	C434.320374,613.742981 439.175354,614.519531 444.541840,615.377991 
	C444.541840,618.522217 444.821503,621.523071 444.414032,624.427490 
	C444.232971,625.718140 442.913269,627.318298 441.688751,627.920227 
	C429.899811,633.715149 418.204895,639.758850 406.130676,644.904358 
	C378.344482,656.745728 328.439575,653.741089 303.844971,626.340332 
	C301.406006,623.623108 298.799683,620.919617 297.016083,617.785706 
	C294.855133,613.988953 292.201721,612.753662 287.851654,612.852539 
	C276.535370,613.109741 265.205688,612.728821 253.882050,612.774780 
	C252.519424,612.780273 250.384689,613.493225 249.933685,614.482666 
	C247.858734,619.034912 244.270111,620.078247 239.755295,620.064819 
	C214.103912,619.988525 188.452240,619.997742 162.800674,619.984680 
	C129.655075,619.967773 96.501007,619.508484 63.367451,620.133545 
	C46.834496,620.445496 37.975391,609.348572 37.060162,595.110168 
	C35.819168,575.803894 46.203316,565.224792 65.713959,565.249817 
	C123.664841,565.324158 181.615814,565.331848 239.566757,565.341797 
	C243.707901,565.342529 247.513855,565.721985 249.961975,569.824768 
	C250.433029,570.614136 252.183670,570.974731 253.340958,570.968445 
	C265.663452,570.901794 277.988892,570.834717 290.303314,570.445679 
	C292.084534,570.389404 294.481842,569.082764 295.464264,567.604126 
	C310.266296,545.325928 331.949371,535.819702 357.638977,532.725952 
	C382.527313,529.728577 405.063477,535.942871 426.745544,548.289062 
M415.335205,567.706909 
	C414.815735,563.962097 415.738251,561.726379 420.227753,561.842163 
	C423.013092,561.913940 425.824280,560.982727 428.843567,560.463989 
	C407.258026,547.276917 384.920380,539.022095 359.499115,541.974487 
	C339.339050,544.315735 321.303864,550.702332 307.865753,566.801453 
	C304.250000,571.133118 301.611725,577.446289 297.027039,579.489868 
	C292.011353,581.725586 285.260376,580.070740 279.265625,580.106567 
	C274.437164,580.135376 269.608704,580.165955 264.780182,580.178833 
	C260.192444,580.191101 255.604660,580.181519 250.802170,580.181519 
	C250.802170,588.378906 250.802170,595.459290 250.802170,602.796387 
	C252.323929,602.910156 253.616440,603.073242 254.911179,603.093384 
	C268.390625,603.303284 281.871704,603.662720 295.349121,603.559265 
	C298.625580,603.534180 299.945953,604.807251 301.407166,607.313721 
	C307.917786,618.481506 316.544983,627.589478 328.537201,632.884216 
	C356.747101,645.339111 384.822357,645.793152 412.631134,631.466248 
	C417.962616,628.719604 423.397552,626.173767 430.116547,622.882935 
	C424.339569,621.995117 420.133148,621.348694 415.735657,620.672852 
	C415.735657,615.832397 414.688141,610.831482 416.175690,606.755798 
	C416.924316,604.704590 422.279205,604.342896 425.541901,603.190979 
	C425.968262,603.040466 426.339447,602.733643 427.135010,602.263550 
	C424.059631,601.425476 421.235718,600.952515 418.690155,599.841736 
	C417.344025,599.254333 415.687195,597.640564 415.550781,596.344849 
	C415.138763,592.430542 415.401947,588.445068 415.401947,584.527344 
	C419.428131,583.278259 423.020538,582.163757 427.529419,580.764954 
	C425.502869,580.105042 424.483093,579.745850 423.447449,579.440186 
	C415.401550,577.064941 415.400604,577.068176 415.335205,567.706909 
M107.498062,610.436401 
	C151.848190,610.436401 196.198318,610.436401 240.665283,610.436401 
	C240.665283,598.354858 240.665283,586.796448 240.665283,575.169739 
	C239.684479,575.077332 239.034866,574.962891 238.385193,574.962524 
	C179.740402,574.927124 121.095596,574.893066 62.450806,574.908752 
	C60.653740,574.909241 58.773430,575.184631 57.073551,575.754333 
	C47.047646,579.114502 43.224712,590.403259 48.189198,602.057190 
	C50.473511,607.419495 54.304955,610.418884 60.528358,610.356567 
	C75.850777,610.203064 91.176109,610.341248 107.498062,610.436401 
z"/>
<path fill="#6A6A6A" opacity="1.000000" stroke="none" 
	d="
M378.999939,919.682373 
	C370.666748,919.682617 362.829956,919.819580 355.002136,919.614746 
	C351.963959,919.535217 350.686646,920.612671 349.707489,923.460022 
	C343.595917,941.232544 337.172546,958.898132 331.095093,976.682007 
	C329.928680,980.095154 328.326782,981.156799 324.742096,981.129211 
	C301.922729,980.953125 279.101349,981.039612 255.515274,981.039612 
	C256.174561,978.930603 256.607697,977.256592 257.213715,975.647705 
	C294.206665,877.430908 331.236053,779.227722 368.133911,680.975220 
	C369.533417,677.248474 371.254944,676.027222 375.270264,676.070740 
	C396.767365,676.303528 418.269043,676.267395 439.767242,676.091553 
	C443.184906,676.063660 444.731171,677.137756 445.915161,680.287292 
	C483.080322,779.150085 520.333862,877.979675 557.565308,976.817505 
	C558.025574,978.039307 558.374878,979.302856 558.864258,980.820801 
	C557.275391,980.904236 555.986206,981.030334 554.696960,981.031006 
	C531.697327,981.042969 508.697021,980.948303 485.698944,981.136353 
	C482.194580,981.164978 480.896851,979.969116 479.816162,976.821655 
	C473.713257,959.046997 467.270264,941.388977 461.187683,923.607605 
	C460.120239,920.487061 458.643036,919.603821 455.498596,919.618103 
	C430.166168,919.733398 404.832947,919.682556 378.999939,919.682373 
M468.832428,763.755920 
	C458.851685,737.300781 448.870941,710.845581 438.868378,684.332642 
	C417.649933,684.332642 396.687866,684.332642 375.441223,684.332642 
	C339.238129,780.419922 303.048096,876.472473 266.723328,972.882629 
	C286.299164,972.882629 304.944366,972.882629 323.816010,972.882629 
	C324.535339,970.995605 325.279236,969.164612 325.935730,967.302856 
	C331.523804,951.455688 337.161041,935.625305 342.635651,919.738953 
	C344.412720,914.582153 347.496277,911.572693 353.166809,911.575806 
	C387.828217,911.594788 422.489777,911.540344 457.150970,911.626221 
	C463.783447,911.642639 465.847473,913.400146 468.086884,919.740417 
	C473.793152,935.896179 479.620514,952.011536 485.076935,968.251465 
	C486.376923,972.120605 488.219177,973.178772 492.175964,973.120972 
	C508.836578,972.877319 525.502808,973.024231 542.166931,973.007751 
	C543.749512,973.006165 545.331909,972.861206 547.577087,972.750000 
	C521.273010,902.973938 495.171326,833.734802 468.832428,763.755920 
z"/>
<path fill="#6B6B6B" opacity="1.000000" stroke="none" 
	d="
M673.973022,976.828918 
	C674.109314,979.442139 674.114136,981.109131 671.015808,981.094543 
	C648.367798,980.987793 625.719055,981.036987 602.546997,981.036987 
	C602.546997,898.380249 602.546997,815.997742 602.546997,732.986877 
	C576.155762,732.986877 550.277893,732.986877 524.142456,732.986877 
	C524.142456,713.802917 524.142456,695.248718 524.142456,676.457336 
	C600.301453,676.457336 676.176941,676.457336 752.292603,676.457336 
	C752.292603,695.301086 752.292603,713.866455 752.292603,732.789185 
	C726.214172,732.789185 700.441589,732.789185 673.973206,732.789185 
	C673.973206,814.212952 673.973206,895.280640 673.973022,976.828918 
M592.478699,724.876831 
	C595.809937,724.908691 599.151978,724.783569 602.469849,725.011169 
	C606.885254,725.314026 609.495483,727.811035 610.026184,732.236023 
	C610.263123,734.211609 610.277222,736.222107 610.277527,738.216736 
	C610.289124,814.359680 610.287292,890.502625 610.287292,966.645569 
	C610.287292,968.601929 610.287292,970.558289 610.287292,972.762939 
	C629.038452,972.762939 647.265198,972.762939 665.955200,972.762939 
	C665.955200,970.557739 665.955200,968.601379 665.955200,966.645020 
	C665.955200,890.002197 665.953796,813.359436 665.957031,736.716614 
	C665.957458,727.110229 668.138672,724.888733 677.640076,724.881592 
	C697.967102,724.866272 718.294067,724.876831 738.621094,724.876831 
	C740.414001,724.876831 742.206970,724.876831 744.164185,724.876831 
	C744.164185,711.092712 744.164185,697.863586 744.164185,684.504578 
	C673.293518,684.504578 602.745239,684.504578 532.222656,684.504578 
	C532.222656,698.073669 532.222656,711.302490 532.222656,724.876770 
	C552.217896,724.876770 571.851746,724.876770 592.478699,724.876831 
z"/>
<path fill="#FEFEFE" opacity="1.000000" stroke="none" 
	d="
M125.034698,469.001617 
	C121.753922,469.001617 118.968613,469.001617 115.997452,469.001617 
	C115.997452,449.246033 115.997452,430.019165 115.997452,409.456238 
	C131.853561,410.279327 147.549591,409.992889 162.885681,412.203552 
	C177.873444,414.363983 186.168762,426.063904 185.759903,440.458374 
	C185.352112,454.814423 175.823212,466.063507 160.903992,467.764587 
	C149.217621,469.097046 137.328949,468.655182 125.034698,469.001617 
z"/>
<path fill="#FEFEFE" opacity="1.000000" stroke="none" 
	d="
M115.731354,332.012299 
	C115.731255,327.883728 115.731255,324.252441 115.731255,319.461884 
	C128.868805,320.088043 141.737396,319.658936 154.242813,321.586273 
	C167.126968,323.572021 173.683640,333.901398 173.195862,347.571594 
	C172.741364,360.309357 164.650131,370.437775 151.723343,371.730377 
	C140.078323,372.894836 128.225006,371.975983 115.731445,371.975983 
	C115.731445,359.297119 115.731445,345.903320 115.731354,332.012299 
z"/>
<path fill="#FCFCFC" opacity="1.000000" stroke="none" 
	d="
M362.882294,350.108398 
	C371.124939,373.959351 379.268494,397.429047 387.600555,421.441986 
	C368.329590,421.441986 349.812469,421.441986 330.423553,421.441986 
	C339.832947,394.266296 349.138947,367.389252 358.928528,339.115601 
	C360.502625,343.448944 361.642914,346.588043 362.882294,350.108398 
z"/>
<path fill="#FCFCFC" opacity="1.000000" stroke="none" 
	d="
M846.870728,373.121674 
	C852.446472,389.294922 857.919739,405.086426 863.582581,421.424805 
	C844.348450,421.424805 825.833923,421.424805 806.431580,421.424805 
	C815.828613,394.281708 825.134216,367.402832 834.949463,339.051636 
	C839.184692,351.123718 842.976501,361.931824 846.870728,373.121674 
z"/>
<path fill="#FFFCFA" opacity="1.000000" stroke="none" 
	d="
M607.372131,145.547455 
	C609.087280,150.443756 610.637939,154.982712 612.403198,160.149841 
	C593.306274,160.149841 574.629761,160.149841 555.300415,160.149841 
	C564.622070,133.085907 573.946838,106.013054 583.706726,77.676750 
	C591.785767,100.886192 599.496704,123.038132 607.372131,145.547455 
z"/>
<path fill="#FEFEFE" opacity="1.000000" stroke="none" 
	d="
M912.933777,571.990723 
	C930.153748,575.609192 946.519592,580.380554 961.887695,589.411194 
	C946.984802,598.316223 931.427673,604.517456 915.563599,609.976379 
	C868.426880,626.196350 819.815979,633.245239 770.065369,634.519592 
	C735.360107,635.408569 700.884827,633.321533 666.397766,630.259583 
	C665.744080,630.201538 665.101807,630.015747 663.739990,629.750305 
	C663.739990,607.954529 663.739990,586.077148 663.739990,563.987976 
	C675.261719,563.987976 687.030273,563.883606 698.796448,564.005859 
	C751.705994,564.555481 804.626648,564.699524 857.517639,566.016479 
	C875.886169,566.473755 894.180969,569.893494 912.933777,571.990723 
z"/>
<path fill="#FFFFFF" opacity="1.000000" stroke="none" 
	d="
M106.292320,930.115967 
	C109.141945,930.546326 111.607056,931.044434 114.072823,931.047668 
	C151.404266,931.097412 188.735779,931.082214 226.067291,931.082214 
	C227.870255,931.082214 229.673233,931.082153 231.805267,931.082153 
	C231.805267,945.043701 231.805267,958.633179 231.805267,972.620850 
	C170.430771,972.620850 108.906021,972.620850 47.144596,972.620850 
	C47.144596,876.597107 47.144596,780.683228 47.144596,684.469849 
	C107.400711,684.469849 167.467987,684.469849 227.836975,684.469849 
	C227.836975,697.883484 227.836975,711.136292 227.836975,725.138367 
	C225.942139,725.138367 224.020889,725.138367 222.099640,725.138367 
	C186.268051,725.138367 150.436478,725.135193 114.604897,725.140503 
	C104.616257,725.141968 101.955956,727.833252 101.953957,737.904602 
	C101.950424,755.737061 101.947914,773.569519 101.955009,791.401978 
	C101.958801,800.923401 104.567245,803.591553 114.100113,803.598999 
	C147.765106,803.625122 181.430130,803.609192 215.095154,803.609192 
	C216.892975,803.609192 218.690781,803.609192 220.788208,803.609192 
	C220.788208,817.289734 220.788208,830.530090 220.788208,844.390808 
	C218.692627,844.390808 216.755020,844.390808 214.817413,844.390808 
	C181.652374,844.390808 148.487335,844.387817 115.322289,844.392334 
	C104.171051,844.393921 101.953697,846.637878 101.953171,857.875671 
	C101.952194,878.708008 101.962585,899.540283 101.944099,920.372620 
	C101.940758,924.137634 102.108154,927.784363 106.292320,930.115967 
z"/>
<path fill="#FEFEFE" opacity="1.000000" stroke="none" 
	d="
M809.489807,914.531982 
	C826.583740,925.041565 844.411743,932.783936 864.240906,934.318665 
	C880.146301,935.549622 895.244141,932.584106 907.149841,920.842590 
	C922.477783,905.726196 920.751038,880.406433 903.186829,867.896423 
	C896.365784,863.038147 888.559204,859.295227 880.759827,856.134338 
	C863.960999,849.326172 846.805603,843.403687 829.928406,836.781616 
	C814.248047,830.629211 799.968445,822.239014 789.276428,808.778137 
	C778.242126,794.886292 775.001648,778.668823 775.307617,761.412598 
	C776.001770,722.261108 801.624390,697.834534 834.788025,687.533630 
	C880.226685,673.420105 922.558655,681.064819 961.525330,708.112915 
	C962.480408,708.775940 963.390991,709.511597 964.266724,710.277039 
	C964.750305,710.699768 965.117737,711.255310 965.813904,712.077393 
	C958.660095,723.801270 951.498840,735.537292 944.226990,747.454712 
	C938.542419,743.690735 933.296814,739.953796 927.801208,736.630066 
	C913.781799,728.151184 898.598206,722.772339 882.254333,721.474243 
	C869.452209,720.457397 856.940247,722.317078 845.665039,729.018433 
	C828.087708,739.465393 824.688721,763.499756 838.483948,778.648560 
	C844.709900,785.485352 852.668396,789.625427 861.100952,792.895996 
	C879.401672,799.993958 897.821838,806.786255 916.087036,813.973206 
	C931.741516,820.132996 945.998718,828.455688 957.013611,841.620239 
	C968.748901,855.645691 972.820129,872.006897 972.637817,889.893188 
	C972.227234,930.181885 947.019897,957.357971 911.911011,969.773621 
	C863.024902,987.061279 817.884216,978.047546 776.276123,948.233032 
	C772.373962,945.436951 768.674316,942.358276 764.511597,939.124084 
	C773.277222,926.164124 781.819946,913.533691 790.368408,900.894836 
	C796.756958,905.450317 802.975830,909.884827 809.489807,914.531982 
z"/>
<path fill="#FEFEFE" opacity="1.000000" stroke="none" 
	d="
M415.347595,568.164246 
	C415.400604,577.068176 415.401550,577.064941 423.447449,579.440186 
	C424.483093,579.745850 425.502869,580.105042 427.529419,580.764954 
	C423.020538,582.163757 419.428131,583.278259 415.401947,584.527344 
	C415.401947,588.445068 415.138763,592.430542 415.550781,596.344849 
	C415.687195,597.640564 417.344025,599.254333 418.690155,599.841736 
	C421.235718,600.952515 424.059631,601.425476 427.135010,602.263550 
	C426.339447,602.733643 425.968262,603.040466 425.541901,603.190979 
	C422.279205,604.342896 416.924316,604.704590 416.175690,606.755798 
	C414.688141,610.831482 415.735657,615.832397 415.735657,620.672852 
	C420.133148,621.348694 424.339569,621.995117 430.116547,622.882935 
	C423.397552,626.173767 417.962616,628.719604 412.631134,631.466248 
	C384.822357,645.793152 356.747101,645.339111 328.537201,632.884216 
	C316.544983,627.589478 307.917786,618.481506 301.407166,607.313721 
	C299.945953,604.807251 298.625580,603.534180 295.349121,603.559265 
	C281.871704,603.662720 268.390625,603.303284 254.911179,603.093384 
	C253.616440,603.073242 252.323929,602.910156 250.802170,602.796387 
	C250.802170,595.459290 250.802170,588.378906 250.802170,580.181519 
	C255.604660,580.181519 260.192444,580.191101 264.780182,580.178833 
	C269.608704,580.165955 274.437164,580.135376 279.265625,580.106567 
	C285.260376,580.070740 292.011353,581.725586 297.027039,579.489868 
	C301.611725,577.446289 304.250000,571.133118 307.865753,566.801453 
	C321.303864,550.702332 339.339050,544.315735 359.499115,541.974487 
	C384.920380,539.022095 407.258026,547.276917 428.843567,560.463989 
	C425.824280,560.982727 423.013092,561.913940 420.227753,561.842163 
	C415.738251,561.726379 414.815735,563.962097 415.347595,568.164246 
z"/>
<path fill="#FDFDFD" opacity="1.000000" stroke="none" 
	d="
M106.999168,610.399231 
	C91.176109,610.341248 75.850777,610.203064 60.528358,610.356567 
	C54.304955,610.418884 50.473511,607.419495 48.189198,602.057190 
	C43.224712,590.403259 47.047646,579.114502 57.073551,575.754333 
	C58.773430,575.184631 60.653740,574.909241 62.450806,574.908752 
	C121.095596,574.893066 179.740402,574.927124 238.385193,574.962524 
	C239.034866,574.962891 239.684479,575.077332 240.665283,575.169739 
	C240.665283,586.796448 240.665283,598.354858 240.665283,610.436401 
	C196.198318,610.436401 151.848190,610.436401 106.999168,610.399231 
z"/>
<path fill="#FEFEFE" opacity="1.000000" stroke="none" 
	d="
M468.951050,764.125854 
	C495.171326,833.734802 521.273010,902.973938 547.577087,972.750000 
	C545.331909,972.861206 543.749512,973.006165 542.166931,973.007751 
	C525.502808,973.024231 508.836578,972.877319 492.175964,973.120972 
	C488.219177,973.178772 486.376923,972.120605 485.076935,968.251465 
	C479.620514,952.011536 473.793152,935.896179 468.086884,919.740417 
	C465.847473,913.400146 463.783447,911.642639 457.150970,911.626221 
	C422.489777,911.540344 387.828217,911.594788 353.166809,911.575806 
	C347.496277,911.572693 344.412720,914.582153 342.635651,919.738953 
	C337.161041,935.625305 331.523804,951.455688 325.935730,967.302856 
	C325.279236,969.164612 324.535339,970.995605 323.816010,972.882629 
	C304.944366,972.882629 286.299164,972.882629 266.723328,972.882629 
	C303.048096,876.472473 339.238129,780.419922 375.441223,684.332642 
	C396.687866,684.332642 417.649933,684.332642 438.868378,684.332642 
	C448.870941,710.845581 458.851685,737.300781 468.951050,764.125854 
M362.831238,869.738403 
	C365.666321,870.485413 368.484924,871.792480 371.339539,871.876526 
	C380.656952,872.151062 389.987488,871.979431 399.312988,871.979309 
	C413.134674,871.979126 426.957092,872.061829 440.777802,871.946533 
	C448.693817,871.880493 452.630096,867.022095 450.235413,860.054199 
	C438.024292,824.522278 425.666901,789.040649 413.367798,753.538940 
	C412.052582,749.742615 409.648682,747.025574 405.461670,747.070068 
	C401.355133,747.113647 398.710724,749.689270 397.398682,753.470154 
	C385.080933,788.966675 372.706573,824.444397 360.695587,860.044678 
	C359.822113,862.633606 361.659454,866.137146 362.831238,869.738403 
z"/>
<path fill="#FEFEFE" opacity="1.000000" stroke="none" 
	d="
M591.982178,724.876831 
	C571.851746,724.876770 552.217896,724.876770 532.222656,724.876770 
	C532.222656,711.302490 532.222656,698.073669 532.222656,684.504578 
	C602.745239,684.504578 673.293518,684.504578 744.164185,684.504578 
	C744.164185,697.863586 744.164185,711.092712 744.164185,724.876831 
	C742.206970,724.876831 740.414001,724.876831 738.621094,724.876831 
	C718.294067,724.876831 697.967102,724.866272 677.640076,724.881592 
	C668.138672,724.888733 665.957458,727.110229 665.957031,736.716614 
	C665.953796,813.359436 665.955200,890.002197 665.955200,966.645020 
	C665.955200,968.601379 665.955200,970.557739 665.955200,972.762939 
	C647.265198,972.762939 629.038452,972.762939 610.287292,972.762939 
	C610.287292,970.558289 610.287292,968.601929 610.287292,966.645569 
	C610.287292,890.502625 610.289124,814.359680 610.277527,738.216736 
	C610.277222,736.222107 610.263123,734.211609 610.026184,732.236023 
	C609.495483,727.811035 606.885254,725.314026 602.469849,725.011169 
	C599.151978,724.783569 595.809937,724.908691 591.982178,724.876831 
z"/>
<path fill="#6A6A6A" opacity="1.000000" stroke="none" 
	d="
M362.533875,869.476929 
	C361.659454,866.137146 359.822113,862.633606 360.695587,860.044678 
	C372.706573,824.444397 385.080933,788.966675 397.398682,753.470154 
	C398.710724,749.689270 401.355133,747.113647 405.461670,747.070068 
	C409.648682,747.025574 412.052582,749.742615 413.367798,753.538940 
	C425.666901,789.040649 438.024292,824.522278 450.235413,860.054199 
	C452.630096,867.022095 448.693817,871.880493 440.777802,871.946533 
	C426.957092,872.061829 413.134674,871.979126 399.312988,871.979309 
	C389.987488,871.979431 380.656952,872.151062 371.339539,871.876526 
	C368.484924,871.792480 365.666321,870.485413 362.533875,869.476929 
M426.950775,816.559998 
	C419.889313,796.235901 412.827881,775.911743 405.385193,754.490356 
	C392.550171,791.529602 380.090515,827.485535 367.529480,863.734070 
	C393.200317,863.734070 417.941162,863.734070 443.284393,863.734070 
	C437.819061,848.002441 432.488983,832.660278 426.950775,816.559998 
z"/>
<path fill="#FEFEFE" opacity="1.000000" stroke="none" 
	d="
M427.054871,816.939026 
	C432.488983,832.660278 437.819061,848.002441 443.284393,863.734070 
	C417.941162,863.734070 393.200317,863.734070 367.529480,863.734070 
	C380.090515,827.485535 392.550171,791.529602 405.385193,754.490356 
	C412.827881,775.911743 419.889313,796.235901 427.054871,816.939026 
z"/>
</svg>