<?xml version="1.0" standalone="no"?>
<!DOCTYPE svg PUBLIC "-//W3C//DTD SVG 20010904//EN"
 "http://www.w3.org/TR/2001/REC-SVG-20010904/DTD/svg10.dtd">
<svg version="1.0" xmlns="http://www.w3.org/2000/svg"
 width="300.000000pt" height="200.000000pt" viewBox="0 0 300.000000 200.000000"
 preserveAspectRatio="xMidYMid meet">

<g transform="translate(0.000000,200.000000) scale(0.100000,-0.100000)"
fill="#000000" stroke="none">
<path d="M564 1858 c8 -173 -2 -243 -37 -274 -43 -37 -48 -56 -31 -114 16 -53
13 -114 -6 -150 -10 -19 -7 -20 35 -20 l45 0 0 44 c0 34 -4 46 -17 49 -10 3 5
5 32 5 28 0 42 -2 33 -5 -16 -4 -18 -18 -18 -108 0 -90 2 -104 18 -108 9 -3
-5 -5 -33 -5 -27 0 -42 2 -32 5 13 3 17 15 17 54 l0 49 -44 0 c-41 0 -44 -2
-50 -31 -10 -50 -7 -67 12 -72 9 -3 -7 -5 -36 -6 -33 -1 -51 3 -47 9 4 7 -3 7
-20 0 -15 -6 -49 -10 -76 -10 -34 0 -54 -5 -68 -19 -10 -10 -36 -21 -57 -25
-53 -10 -84 -32 -83 -59 0 -48 -25 -207 -33 -207 -5 0 -22 -15 -39 -32 l-29
-32 0 -357 0 -356 97 -7 c54 -3 156 -14 228 -22 110 -14 194 -15 540 -9 226 5
488 7 584 6 181 -2 298 14 349 47 20 13 54 14 225 8 111 -3 211 -8 222 -10 11
-3 29 -5 41 -5 11 -1 29 -8 40 -16 16 -12 17 -16 4 -24 -8 -6 -11 -13 -8 -17
9 -9 78 5 78 15 0 5 17 12 37 16 45 8 353 7 476 -2 l87 -6 0 743 0 743 -35
-39 c-41 -46 -43 -77 -11 -124 31 -46 40 -76 25 -86 -18 -11 -81 -13 -114 -4
-16 4 -46 10 -66 13 l-37 5 -5 -56 c-4 -45 -1 -60 11 -69 13 -11 8 -13 -34
-12 -27 1 -41 3 -31 6 15 4 17 14 15 76 l-3 72 -32 3 -33 3 0 -80 c0 -45 -3
-81 -7 -81 -5 0 -32 41 -62 91 -61 105 -71 104 -71 -8 0 -60 3 -72 18 -76 9
-3 -1 -5 -23 -5 -22 0 -32 2 -22 5 14 4 17 17 17 89 0 88 -1 90 -47 78 -21 -6
-23 -12 -23 -84 0 -66 3 -79 18 -83 9 -3 -5 -5 -33 -5 -27 0 -43 2 -35 4 11 3
15 18 13 57 -1 28 -2 64 -2 80 -1 20 -6 27 -21 27 -12 0 -33 12 -48 28 -17 17
-35 26 -49 24 -22 -3 -23 -7 -23 -108 l0 -104 35 0 c29 0 39 6 55 33 l20 32 0
-37 0 -38 -182 2 c-101 0 -175 3 -165 5 15 4 17 18 17 104 0 79 -3 101 -15
105 -8 4 -13 10 -10 15 3 4 -12 17 -33 28 -22 11 -52 31 -68 44 -16 13 -84 58
-151 101 -67 43 -127 84 -134 92 -21 25 -50 15 -126 -47 l-75 -61 -66 13 c-94
17 -100 25 -74 90 34 81 26 139 -18 139 -9 0 -24 6 -34 13 -16 12 -19 27 -17
100 l2 87 -327 0 -327 0 7 -142z m314 -341 c-2 -11 -9 -22 -15 -25 -16 -4 -27
22 -19 43 8 22 38 6 34 -18z m-18 -102 c0 -8 -7 -15 -15 -15 -13 0 -14 3 -3
15 16 18 18 18 18 0z m405 -117 c19 -62 41 -115 48 -120 7 -4 -7 -8 -33 -8
-29 0 -40 3 -31 9 10 7 11 16 4 37 -8 24 -16 30 -45 32 -33 3 -37 1 -43 -29
-5 -22 -3 -34 6 -40 10 -6 3 -9 -20 -9 -30 0 -32 2 -19 13 9 6 30 57 48 112
34 103 38 115 45 115 2 0 20 -50 40 -112z m-445 70 c-1 -30 -2 -31 -12 -13
-16 28 -28 35 -65 35 -32 0 -33 -1 -33 -45 0 -35 4 -45 16 -45 9 0 23 8 30 18
12 15 13 12 13 -28 0 -40 -1 -43 -13 -27 -7 9 -21 17 -30 17 -13 0 -16 -10
-16 -50 0 -49 1 -50 31 -50 38 0 69 16 69 35 0 8 5 15 11 15 6 0 8 -7 5 -16
-3 -9 -6 -22 -6 -30 0 -11 -19 -14 -92 -13 -51 1 -85 3 -75 6 15 4 17 18 17
108 0 90 -2 104 -17 108 -10 3 24 5 75 6 l92 1 0 -32z m263 12 c36 -29 51 -79
38 -128 -17 -61 -41 -76 -124 -79 -40 -2 -66 0 -59 3 8 4 12 36 12 109 0 73
-4 105 -12 108 -7 3 17 6 53 6 52 1 72 -3 92 -19z m335 13 c-16 -4 -18 -18
-18 -108 0 -90 2 -104 18 -108 9 -3 -5 -5 -33 -5 -27 0 -42 2 -32 5 15 4 17
18 17 108 0 90 -2 104 -17 108 -10 3 5 5 32 5 28 0 42 -2 33 -5z m110 0 c-16
-4 -18 -18 -18 -109 l0 -104 35 0 c29 0 39 6 55 33 l20 32 0 -37 0 -38 -92 1
c-51 1 -85 3 -75 6 15 4 17 18 17 108 0 73 -4 105 -12 108 -7 3 10 5 37 5 28
0 42 -2 33 -5z m145 1 c-9 -4 -6 -18 9 -50 12 -24 25 -44 28 -44 3 0 16 20 28
44 19 41 20 45 4 49 -9 3 1 5 23 5 22 0 33 -2 24 -5 -8 -2 -27 -28 -42 -59
-33 -66 -38 -150 -9 -157 9 -3 -8 -5 -38 -5 -30 0 -47 2 -37 5 31 8 23 95 -15
159 -18 29 -39 55 -48 58 -8 2 8 4 35 4 28 0 45 -2 38 -4z m305 -1 c-16 -4
-18 -18 -18 -108 0 -90 2 -104 18 -108 9 -3 -8 -5 -38 -5 -30 0 -47 2 -37 5
15 4 17 18 17 108 0 90 -2 104 -17 108 -10 3 7 5 37 5 30 0 47 -2 38 -5z
m-368 -255 c0 -10 -19 -9 -45 2 -16 7 -14 9 13 7 17 -1 32 -5 32 -9z m-895
-248 l55 -115 0 118 0 117 85 0 85 0 0 -240 0 -240 -94 0 -93 0 -52 110 c-28
61 -52 110 -54 110 -1 0 0 -50 1 -110 l4 -111 -89 3 -88 3 -3 225 c-1 123 0
230 3 238 3 9 28 12 95 10 l90 -3 55 -115z m663 48 l3 -68 -91 0 c-73 0 -90
-3 -90 -15 0 -12 16 -15 85 -15 l85 0 0 -70 0 -70 -85 0 c-69 0 -85 -3 -85
-15 0 -12 17 -15 90 -15 l90 0 0 -70 0 -70 -175 0 -175 0 0 240 0 240 173 -2
172 -3 3 -67z m246 -48 c22 -126 19 -128 52 33 l17 88 91 -3 91 -3 21 -110
c12 -60 23 -108 24 -105 1 3 11 52 23 110 l22 105 94 3 c86 3 93 1 89 -15 -3
-10 -34 -118 -68 -240 l-64 -223 -92 0 -92 0 -16 73 c-9 39 -20 90 -24 112
-11 48 -14 42 -42 -87 l-22 -98 -89 0 c-87 0 -90 1 -99 26 -16 40 -120 425
-120 441 0 11 18 13 92 11 l92 -3 20 -115z m884 91 c23 -12 42 -25 42 -29 0
-4 -13 -29 -28 -57 -30 -54 -32 -55 -104 -29 -28 9 -55 13 -65 9 -15 -6 -11
-10 17 -18 119 -33 165 -67 180 -131 16 -71 -20 -140 -92 -177 -53 -27 -154
-29 -225 -5 -76 25 -80 34 -43 105 16 34 34 61 38 61 4 0 15 -7 25 -15 29 -21
116 -40 129 -27 8 8 2 13 -18 17 -117 26 -178 69 -190 132 -14 72 34 152 107
180 52 19 175 11 227 -16z m-864 -787 c9 -3 16 -10 16 -15 0 -11 -45 -12 -91
-2 l-34 8 45 6 c25 3 46 7 47 7 1 1 8 -1 17 -4z"/>
<path d="M1193 1305 c-11 -34 -10 -35 14 -35 21 0 24 4 19 23 -3 12 -6 28 -6
35 0 25 -17 11 -27 -23z"/>
<path d="M990 1285 l0 -105 28 0 c35 0 48 9 61 43 30 79 -1 167 -60 167 l-29
0 0 -105z"/>
<path d="M2162 1488 c-5 -7 -17 -29 -27 -48 -10 -19 -28 -44 -42 -55 -23 -19
-25 -28 -26 -110 l-2 -90 27 -3 c32 -4 68 13 68 33 0 7 5 17 11 21 7 4 10 -4
7 -22 -2 -21 2 -30 15 -32 15 -3 17 7 17 102 0 94 -2 106 -17 108 -10 1 6 4
36 7 l54 6 -43 48 c-44 49 -60 56 -78 35z"/>
<path d="M2766 1453 c-12 -13 -6 -53 8 -53 8 0 18 -4 21 -10 3 -6 -1 -7 -9 -4
-9 3 -16 2 -16 -4 0 -12 29 -24 41 -16 5 3 4 15 -3 27 -7 12 -11 25 -10 30 1
4 -4 7 -10 7 -10 0 -10 2 0 9 11 7 11 9 -1 14 -8 3 -18 3 -21 0z"/>
<path d="M2595 1330 c-5 -8 30 -80 39 -80 6 0 3 45 -4 66 -10 25 -24 31 -35
14z"/>
<path d="M270 1190 c0 -5 5 -10 10 -10 6 0 10 5 10 10 0 6 -4 10 -10 10 -5 0
-10 -4 -10 -10z"/>
<path d="M0 31 l0 -31 207 0 c113 0 204 3 200 6 -3 3 -84 14 -179 25 -95 10
-185 21 -200 25 -26 5 -28 3 -28 -25z"/>
<path d="M2206 35 c-21 -7 -46 -11 -55 -7 -14 5 -14 4 1 -11 12 -12 33 -17 72
-17 59 0 67 7 39 33 -16 13 -23 14 -57 2z"/>
<path d="M2016 15 c21 -16 84 -20 84 -6 0 13 -26 21 -68 21 -34 0 -35 -1 -16
-15z"/>
</g>
</svg>
